<svg width="255" height="233" viewBox="0 0 255 233" fill="none" xmlns="http://www.w3.org/2000/svg">
<g id="Group">
<path id="Blob" fill-rule="evenodd" clip-rule="evenodd" d="M141.06 0.375C206.812 0.375 220.656 91.499 220.924 92.2488C221.202 93.0214 221.463 93.8166 221.715 94.5883C222.228 96.1556 222.888 97.6646 223.401 99.2215C223.715 100.171 224.292 100.958 224.678 101.855C225.428 103.569 226.346 105.204 227.421 106.736C227.864 107.343 228.212 108.014 228.454 108.725C228.624 109.27 229.186 109.415 229.428 109.896C229.821 110.673 230.345 111.384 230.798 112.131C230.901 112.394 231.138 112.58 231.418 112.619L231.329 113.361C231.493 113.628 231.549 113.267 231.721 113.33C231.936 113.62 232.242 113.877 232.273 114.317C232.302 114.731 232.785 114.77 232.951 115.131C233.313 115.915 234.322 116.315 234.307 117.344C235.032 117.799 235.389 118.581 235.936 119.194C236.217 119.476 236.388 119.848 236.42 120.242L236.425 120.334C236.422 120.726 237.179 120.638 236.975 121.174C238.135 122.044 238.437 123.467 239.049 124.645C240.032 126.536 241.164 128.363 241.831 130.434C242.165 131.47 242.814 132.45 243.174 133.499C243.984 135.856 244.957 138.162 245.483 140.618C245.7 141.632 246.144 142.598 246.352 143.615L246.591 144.791C246.948 146.555 247.287 148.323 247.511 150.11C247.627 150.514 247.626 150.941 247.511 151.345C247.317 151.803 247.831 152.097 247.873 152.558C247.924 153.104 247.706 153.621 247.863 154.201C247.949 154.52 247.863 155.034 247.963 155.404C248.285 156.61 247.877 157.853 248.228 159.05C248.283 159.513 248.235 159.982 248.085 160.423C247.842 161.897 248.287 163.402 247.843 164.841C247.636 165.551 247.596 166.298 247.727 167.025L247.782 167.305C247.821 167.512 247.847 167.714 247.745 167.854C247.341 168.407 247.445 169.058 247.364 169.663L247.349 169.763C247.233 170.44 247.353 171.149 247.148 171.839C246.869 172.514 246.712 173.233 246.685 173.963C246.789 175.2 246.372 176.311 246.117 177.46C245.989 178.034 246.095 178.717 245.463 179.144C245.142 179.361 245.9 179.782 245.44 180.1L245.386 180.134C245.049 180.324 245.063 180.632 245.159 181C245.246 181.336 244.658 181.569 244.826 181.913C244.994 182.257 245.07 182.759 244.873 182.822C244.382 182.983 244.882 183.517 244.469 183.618C244.429 183.64 244.401 183.68 244.394 183.725C244.253 185.018 243.421 186.079 243.215 187.371C243.059 188.143 242.758 188.878 242.329 189.538C241.973 190.175 241.671 190.84 241.426 191.527C240.964 192.682 240.174 193.647 239.729 194.797C239.608 195.108 238.802 195.004 239.212 195.642C238.742 195.808 238.885 196.295 238.696 196.6C238.487 196.83 238.245 197.026 237.976 197.182C237.803 197.866 237.47 198.5 237.005 199.032C236.193 200.22 235.306 201.355 234.351 202.431L233.561 203.315C232.506 204.494 231.417 205.647 230.026 206.46C229.669 206.668 229.831 207.065 229.537 207.279C227.832 208.538 226.262 209.966 224.322 210.919C223.511 211.319 222.815 212.029 221.985 212.445C220.412 213.234 218.952 214.217 217.27 214.832L216.971 214.936C215.899 215.293 214.845 215.833 213.757 216.225C211.523 217.103 209.191 217.708 206.812 218.029L205.345 218.192C204.04 218.336 202.734 218.469 201.416 218.505C200.792 218.522 200.194 218.325 199.623 218.396C199.067 218.466 198.502 218.421 197.965 218.262C197.54 218.144 197.181 218.509 196.724 218.312C196.372 218.093 195.937 218.06 195.559 218.22L195.484 218.255C195.267 218.381 194.841 218.148 194.51 218.074C194.028 218.007 193.555 217.89 193.097 217.725C192.743 217.561 192.291 218.087 192.044 217.527C191.596 217.875 161.133 210.636 133.15 225.336C130.871 226.846 128.205 227.509 125.77 228.682C124.638 229.228 123.365 229.477 122.147 229.85L121.887 229.932C119.736 230.628 117.53 231.102 115.327 231.598C113.303 232.036 111.253 232.34 109.189 232.51C107.705 232.644 106.215 232.706 104.734 232.868C104.134 232.933 103.546 232.51 102.958 232.873C101.639 232.514 100.253 232.95 98.9371 232.545C98.0618 232.804 97.2394 232.482 96.4348 232.245C95.8209 232.063 95.2423 232.441 94.6219 232.173C94.0571 231.879 93.4245 231.738 92.788 231.766C91.7313 231.928 90.8116 231.54 89.8491 231.335C87.6127 230.859 85.3843 230.344 83.1639 229.791C82.4367 229.609 81.6199 229.679 80.9969 229.123C80.4504 228.635 79.5879 228.941 79.0508 228.365C78.8548 228.155 78.6048 228.561 78.3096 228.403C77.7339 228.093 76.9938 228.297 76.4558 227.74C76.0572 227.327 75.305 227.606 74.8638 227.108L74.8056 227.035C74.5453 226.673 73.858 227.525 73.6547 226.72C72.8336 226.657 72.153 226.209 71.4218 225.903C70.816 225.65 70.1011 225.792 69.5544 225.265C69.0886 224.815 68.2082 225.146 67.8047 224.472C66.8176 224.464 66.0895 223.725 65.1487 223.531C64.4346 223.344 63.7488 223.061 63.1098 222.692C62.0967 222.171 61.068 221.68 60.0316 221.215C59.6598 221.042 59.2978 220.849 58.9474 220.636C58.7509 220.521 58.7032 220.266 58.4224 220.204C56.6453 219.811 55.1507 218.775 53.6328 217.869C52.7672 217.422 51.9389 216.906 51.156 216.327L50.8967 216.132C50.6675 215.935 50.1916 215.838 49.9901 215.564C49.4284 214.801 48.5883 214.428 47.8265 213.969L47.7003 213.892C47.2711 213.639 46.8809 213.325 46.5421 212.961C46.478 212.891 46.4519 212.74 46.3838 212.723C45.1192 212.411 44.3645 211.367 43.3977 210.636C42.566 210.009 41.8386 209.244 41.0196 208.605L40.7078 208.371C38.7913 207 17.8206 183.925 15.4443 179.943L14.7643 178.803C14.0853 177.661 13.414 176.511 12.796 175.338L12.2697 174.34C11.7442 173.339 11.227 172.331 10.7697 171.306L10.1579 169.937C8.93729 167.199 7.74289 164.446 6.72488 161.619C5.8171 159.096 5.06558 156.532 4.30688 153.966C3.82093 152.318 3.41029 150.663 3.06338 148.984C2.50915 146.301 2.01493 143.607 1.58073 140.902C1.17576 138.356 1.32556 135.772 0.784749 133.254C1.13906 131.708 0.487654 130.139 0.892129 128.594C0.592084 127.832 0.855919 127.04 0.88412 126.289C0.913045 125.513 0.738966 124.7 1.04887 123.913C1.19083 123.556 0.862668 123.126 1.04048 122.69C1.23567 122.327 1.2582 121.896 1.1019 121.515C1.62881 121.273 1.00076 120.9 1.21957 120.555C1.45548 120.18 1.5597 119.738 1.51575 119.298C1.36231 118.312 1.92985 117.403 1.83021 116.513C1.72633 115.602 2.17587 114.831 2.17446 114.015L2.16866 113.861C2.09108 112.79 2.85671 111.984 2.88225 110.971C2.88467 110.882 3.09422 110.8 3.20912 110.712C3.17226 110.484 2.92021 110.536 2.74142 110.358C3.02684 110.111 3.27658 109.825 3.48355 109.509C3.6402 109.075 3.75146 108.627 3.81553 108.171L3.08974 107.234C3.35757 106.699 3.2642 106.212 3.62178 105.792C3.77741 105.608 3.69062 105.047 3.70984 104.66C3.73517 104.151 4.38876 103.848 4.2311 103.447C4.10947 102.985 4.14887 102.495 4.34283 102.058C5.2779 97.9361 6.23037 93.8178 7.20022 89.7034C7.30223 89.2624 7.21347 88.7077 7.75619 88.4494C7.16316 87.8372 8.09447 87.6234 8.10892 87.138C8.18452 86.6844 8.35934 86.2529 8.62095 85.8744C8.99136 85.1661 9.02543 84.287 9.23642 83.4888C9.29198 82.9245 9.50572 82.3873 9.85313 81.9388C10.2144 81.5646 10.1623 80.9131 10.4344 80.3878C10.8187 79.7531 11.1165 79.0701 11.32 78.3568C11.3813 77.8442 11.5857 77.3592 11.9097 76.9569C12.1975 76.6393 11.9611 75.9815 12.5204 75.7418C12.6773 74.8198 13.2278 74.0794 13.6353 73.2716L13.7099 73.1193C14.711 71.0406 15.8361 69.0238 17.0793 67.0797C18.1121 65.4435 19.117 63.79 20.1656 62.164C20.5067 61.6393 20.8695 61.1163 21.2446 60.618C22.5477 58.7855 23.9513 57.0262 25.4491 55.3484C26.8188 53.8969 28.1246 52.3801 29.5628 50.9843C30.3274 50.2418 30.9531 49.3302 31.6954 48.5414C33.4446 46.6798 35.241 44.8686 37.1303 43.1495C38.7259 41.5732 40.4708 40.1549 42.3406 38.9147C42.8488 38.6057 43.2669 38.1524 43.7575 37.8102C44.3532 37.4821 44.9248 37.1122 45.468 36.7032C46.0999 36.1089 46.8753 35.7309 47.5136 35.1803C48.0091 34.7532 48.8017 34.9967 49.1563 34.2283C49.4148 33.6691 50.3822 33.874 50.7081 33.2207C51.6011 33.191 52.0182 32.3263 52.8293 32.042L52.9374 32.0084C53.7918 31.7753 54.5211 31.0855 55.3051 30.5965C56.0612 30.061 56.8524 29.5767 57.6734 29.1468C59.2147 28.4528 60.545 27.3953 62.0515 26.6784C63.4879 25.9958 64.7806 24.9965 66.3471 24.616C66.7173 24.5264 66.6483 24.2 66.9031 24.0607C67.1681 23.915 67.4584 24.0115 67.6978 23.8435C68.6885 23.1972 75.3072 0.375 141.06 0.375Z" fill="#254061"/>
<path id="Shape" fill-rule="evenodd" clip-rule="evenodd" d="M66.8902 49.2934C64.6907 50.5342 61.4703 48.9514 61.1092 46.452C62.512 46.3771 64.0116 46.2677 65.1205 45.4053C66.2295 44.5429 66.6177 42.6332 65.5061 41.7744C56.4558 40.6629 47.6518 37.5879 39.8775 32.8232C45.1859 31.2236 49.7537 27.8496 54.7398 25.4254C59.7259 23.0011 65.7566 21.5674 70.7295 24.0187C75.6124 26.4257 81.2337 23.3554 86.3291 21.4388C95.1894 18.1061 105.349 18.3855 114.013 22.2001C120.334 24.9832 131.045 20.4659 137.873 19.4298C149.027 17.7375 159.915 25.5549 171.115 24.2011C169.914 24.9956 168.712 25.79 167.511 26.5845C168.694 26.4763 169.884 26.4326 171.072 26.4535C161.777 30.9013 152.482 35.3492 143.187 39.797C145.542 40.7495 147.897 41.7019 150.251 42.6543C149.698 44.4289 147.713 45.6274 145.885 45.2914C147.356 46.4622 148.827 47.6329 150.299 48.8037C148.728 49.919 146.741 50.4314 144.827 50.2143C146.865 51.5303 148.547 53.392 149.651 55.5529C154.506 53.9353 159.825 53.7361 164.787 54.986C160.303 55.5739 155.82 56.1617 151.336 56.7496C152.013 58.5932 152.69 60.4367 153.367 62.2803C159.225 60.9397 165.45 61.2445 171.149 63.1509C165.498 63.2947 159.847 63.4385 154.196 63.5823C154.064 71.0794 150.332 78.7249 143.778 82.3683C137.224 86.0116 124.128 89.251 119.791 78.643C116.47 80.8226 116.705 86.0616 119.073 89.251C121.44 92.4405 125.202 94.2057 128.604 96.2561C139.905 103.067 148.429 114.346 151.896 127.076C155.363 139.807 153.735 153.85 147.448 165.451C155.924 166.768 163.801 171.592 168.826 178.544C179.649 173.508 185.644 162.017 193.934 153.428C203.365 143.658 216.383 137.43 229.908 136.219C237.91 135.503 247.036 137.046 251.704 143.585C257.771 152.084 252.178 165.3 242.493 169.207C234.816 172.304 226.158 170.747 217.9 171.332C201.295 172.508 186.718 182.3 173.026 191.767C172.467 194.832 173.588 198.151 175.891 200.25C180.788 195.188 186.966 191.374 193.687 189.264C196.171 188.484 199.894 188.688 200.17 191.277C200.275 192.257 199.759 193.186 199.238 194.022C194.757 201.205 188.439 207.231 181.053 211.367C177.154 213.551 172.798 215.243 168.336 214.993C163.875 214.743 159.331 212.168 157.816 207.964C157.114 206.016 157.038 203.762 155.708 202.174C153.458 199.489 149.136 200.293 145.983 201.818C142.829 203.344 139.467 205.418 136.083 204.513C127.623 202.25 118.818 201.28 110.069 201.646C98.9257 202.112 87.572 204.706 76.7762 201.908C73.1697 200.973 69.1338 199.499 65.9389 201.415C59.6426 205.192 63.8895 217.284 57.43 220.774C55.142 222.011 52.3379 221.555 49.8138 220.928C38.6591 218.16 28.1962 212.647 19.606 205.011C18.7781 204.275 17.9252 203.449 17.6931 202.366C16.997 199.117 21.7923 197.765 25.0598 198.367C30.6102 199.388 35.9187 201.702 40.4455 205.072C42.0323 206.254 44.4468 204.876 45.119 203.015C45.7913 201.154 45.3287 199.105 45.0663 197.145C43.4091 184.759 51.1793 171.737 62.8663 167.314C55.7905 156.989 53.0999 143.759 55.5805 131.489C58.0612 119.22 65.6803 108.074 76.2117 101.308C80.4189 98.6056 85.2526 96.395 87.9339 92.174C90.6151 87.9531 89.4383 80.8717 84.5334 79.8986C79.9118 84.9038 72.3948 87.0208 65.8405 85.1631C59.2862 83.3053 53.998 77.5588 52.6902 70.8729C48.3399 72.3421 43.9896 73.8113 39.6393 75.2805C43.5006 72.3047 48.0733 70.2587 52.8651 69.3627C53.325 67.37 53.7849 65.3773 54.2448 63.3847C45.9439 62.8492 37.5261 64.2153 29.8206 67.3485C34.5622 63.7793 40.5952 61.9656 46.5189 62.3285C52.5441 62.6975 58.6688 59.7495 62.1388 54.8101C59.9677 54.0469 58.0165 52.6689 56.571 50.8782C58.7852 49.6764 61.4669 49.3649 63.8976 50.0273M109.474 179.983C109.079 180.368 108.653 180.825 108.681 181.375C108.709 181.926 109.535 182.337 109.82 181.865C111.376 179.288 114.081 177.435 117.046 176.916C120.011 176.397 123.185 177.221 125.523 179.116C126.339 179.778 127.068 180.568 128 181.052C128.335 181.226 128.91 181.23 128.923 180.852C128.928 180.728 128.857 180.616 128.787 180.513C127.108 178.038 124.597 176.138 121.759 175.195C119.271 174.368 116.388 174.316 114.163 175.702C113.355 176.206 112.666 176.875 111.984 177.54C111.147 178.354 110.31 179.169 109.474 179.983ZM97.4083 175.48C94.1872 175.054 90.7193 176.135 88.5742 178.575C88.1961 179.006 87.8525 179.489 87.7224 180.047C87.5923 180.605 87.7146 181.25 88.1467 181.626C89.8059 179.049 92.7546 177.348 95.8168 177.204C98.879 177.06 101.975 178.474 103.869 180.885C104.165 181.262 104.448 181.673 104.869 181.904C105.289 182.134 105.901 182.104 106.157 181.699C106.463 181.215 106.093 180.596 105.716 180.165C103.576 177.72 100.629 175.906 97.4083 175.48ZM120.13 172.182C120.08 172.727 120.799 173.066 121.316 172.887C121.833 172.709 122.176 172.233 122.522 171.809C125.402 168.288 130.885 167.227 134.871 169.42C135.393 168.978 135.423 168.132 135.073 167.544C134.724 166.956 134.085 166.595 133.433 166.386C132.021 165.935 130.489 166.089 129.036 166.383C125.598 167.078 122.125 168.708 120.317 171.715C120.23 171.86 120.145 172.013 120.13 172.182ZM106.613 183.608C105.2 183.707 103.817 184.081 102.494 184.587C100.666 185.287 98.8657 186.306 97.7955 187.945C99.3649 188.389 100.869 187.219 102.303 186.441C105.519 184.696 109.691 184.876 112.744 186.893C113.702 187.525 114.933 188.342 115.867 187.675C113.682 184.935 110.109 183.365 106.613 183.608ZM112.418 182.725C113.49 182.166 114.347 181.259 115.41 180.684C116.874 179.892 118.698 179.801 120.234 180.443C121.068 180.791 121.806 181.336 122.628 181.712C123.45 182.089 124.429 182.284 125.247 181.901C125.338 181.858 125.432 181.802 125.471 181.71C125.533 181.559 125.422 181.397 125.315 181.274C123.483 179.183 120.612 178.05 117.845 178.326C115.079 178.602 112.488 180.28 111.106 182.692C111.394 183.072 111.995 182.945 112.418 182.725ZM90.9537 182.825C91.5279 182.498 91.9771 181.993 92.5022 181.592C93.552 180.791 94.9197 180.422 96.2319 180.574C97.6942 180.744 99.0128 181.518 100.222 182.357C100.576 182.603 100.937 182.861 101.356 182.958C101.776 183.056 102.275 182.95 102.512 182.591C102.747 182.235 102.653 181.74 102.402 181.396C102.151 181.052 101.773 180.826 101.406 180.61C99.9113 179.733 98.3316 178.857 96.6011 178.768C94.4379 178.656 92.4272 179.784 90.5564 180.875C89.7977 181.318 88.9264 181.989 89.0871 182.852C89.6064 183.261 90.3794 183.151 90.9537 182.825ZM100.696 174.439C101.086 174.945 101.851 174.403 102.282 173.932C103.61 172.481 105.524 171.582 107.489 171.488C109.454 171.394 111.446 172.105 112.907 173.422C113.275 173.754 113.664 174.146 114.16 174.16C114.656 174.173 115.102 173.481 114.709 173.179C112.603 171.561 110.152 170.238 107.502 170.064C104.852 169.889 101.996 171.078 100.769 173.434C100.604 173.749 100.478 174.158 100.696 174.439ZM124.128 173.996C124.478 173.848 124.734 173.547 125.002 173.278C127.041 171.227 130.496 170.768 133 172.217C133.626 172.579 134.568 172.978 134.931 172.353C135.235 171.832 134.694 171.225 134.178 170.912C130.811 168.87 126.01 169.648 123.46 172.649C123.2 172.955 122.951 173.374 123.129 173.733C123.298 174.073 123.779 174.144 124.128 173.996ZM125.99 174.189C125.845 174.31 125.701 174.446 125.64 174.624C125.47 175.123 126.076 175.589 126.601 175.548C127.126 175.506 127.572 175.168 128.049 174.944C129.211 174.396 130.607 174.526 131.786 175.035C132.253 175.237 132.705 175.497 133.207 175.573C133.71 175.648 134.296 175.482 134.525 175.028C132.526 172.551 128.432 172.149 125.99 174.189ZM94.3927 173.238C94.6909 173.378 95.0978 173.351 95.2897 173.084C95.5507 172.72 95.2711 172.224 94.9941 171.871C94.0562 170.679 93.0473 169.505 91.7581 168.705C90.469 167.905 88.8453 167.52 87.4095 168.01C87.2635 168.541 87.9235 168.901 88.4429 169.082C90.4428 169.779 92.2579 170.999 93.6587 172.588C93.8766 172.835 94.0944 173.099 94.3927 173.238ZM112.066 174.569C109.706 173.064 106.484 173.038 104.1 174.504C103.685 174.759 103.26 175.117 103.227 175.602C103.195 176.088 103.854 176.538 104.181 176.178C105.499 174.726 107.905 174.425 109.54 175.507C110.343 176.039 111.495 175.966 112.225 175.338C112.569 175.302 112.358 174.756 112.066 174.569ZM129.235 182.713C125.881 182.487 122.761 184.46 120.326 186.778C120.503 187.187 121.108 187.079 121.517 186.902C124.289 185.702 127.062 184.502 129.834 183.303C130.042 183.027 129.579 182.737 129.235 182.713ZM97.3182 184.207C97.7306 184.441 98.1346 184.759 98.6086 184.759C99.0827 184.759 99.5527 184.189 99.2521 183.822C98.3051 182.667 96.8168 181.977 95.3238 182C93.8308 182.023 92.3643 182.758 91.4532 183.941C91.5655 184.371 92.0916 184.569 92.5313 184.505C92.9709 184.441 93.3582 184.193 93.766 184.017C94.8938 183.528 96.2491 183.6 97.3182 184.207ZM113.947 183.892C113.91 184.222 114.284 184.475 114.616 184.456C114.948 184.438 115.239 184.244 115.53 184.084C116.752 183.411 118.256 183.273 119.58 183.713C120.428 183.994 121.486 184.455 122.098 183.803C122.152 183.431 121.779 183.151 121.447 182.974C120.258 182.342 118.949 181.865 117.603 181.877C116.256 181.89 114.866 182.454 114.098 183.56C114.028 183.661 113.961 183.77 113.947 183.892ZM111.444 169.402C112.831 169.899 114.122 170.659 115.228 171.631C115.684 172.032 116.12 172.476 116.673 172.726C117.227 172.975 117.945 172.982 118.378 172.556C117.42 171.822 116.633 170.865 116.096 169.784C115.807 169.201 115.036 169.095 114.387 169.063C113.437 169.016 112.488 168.97 111.539 168.924C111.438 169.058 111.403 169.239 111.444 169.402ZM99.0619 172.736C99.5521 172.278 99.9138 171.701 100.367 171.206C101.069 170.439 101.994 169.878 102.999 169.61C103.432 169.494 104.002 169.273 103.937 168.829C102.709 168.615 101.307 168.443 100.338 169.228C98.9818 170.327 97.9062 171.77 97.2408 173.385C97.8957 173.529 98.5717 173.194 99.0619 172.736ZM88.1437 172.18C89.024 172.753 89.9042 173.327 90.7844 173.9C91.1571 174.143 91.6329 174.392 92.0194 174.172C92.3782 173.968 92.433 173.442 92.246 173.074C92.059 172.706 91.7025 172.46 91.3602 172.229C90.6435 171.747 89.9268 171.264 89.2102 170.782C88.61 170.378 87.6323 170.055 87.3058 170.701C87.0244 171.258 87.6211 171.839 88.1437 172.18ZM106.677 179.075C107.014 179.409 107.486 179.77 107.914 179.565C108.109 179.472 108.235 179.28 108.35 179.097C108.732 178.494 109.114 177.891 109.495 177.288C108.496 176.177 106.535 176.147 105.503 177.227C105.423 177.31 105.346 177.405 105.332 177.519C105.309 177.7 105.449 177.856 105.578 177.984C105.944 178.347 106.311 178.711 106.677 179.075ZM91.2738 187.699C91.9896 187.95 92.8345 188.024 93.4659 187.604C92.5154 186.511 91.4015 185.56 90.1725 184.793C89.8239 184.576 89.4308 184.365 89.024 184.423C88.6171 184.481 88.257 184.944 88.4541 185.304C89.0587 186.411 90.0837 187.282 91.2738 187.699ZM130.548 178.912C130.886 178.504 131.225 178.095 131.563 177.686C131.68 177.545 131.803 177.386 131.795 177.204C131.786 176.972 131.574 176.805 131.372 176.692C130.669 176.296 129.839 176.131 129.038 176.227C128.732 176.264 128.413 176.348 128.197 176.569C127.982 176.789 127.92 177.182 128.137 177.401C128.628 177.899 129.119 178.396 129.61 178.894C129.77 179.056 129.974 179.233 130.197 179.184C130.344 179.152 130.452 179.029 130.548 178.912ZM95.2478 170.081C95.5512 170.408 95.9324 170.742 96.3767 170.706C97.3295 170.627 97.6367 168.983 98.5886 169.073C98.8441 168.651 98.1467 168.314 97.6541 168.307C96.3792 168.286 95.1042 168.266 93.8293 168.246C94.2455 168.899 94.7209 169.514 95.2478 170.081ZM103.122 188.001C105.774 187.989 108.426 187.978 111.078 187.966C110.845 187.442 110.223 187.229 109.662 187.113C107.821 186.731 105.892 186.789 104.078 187.281C103.671 187.391 103.208 187.589 103.122 188.001ZM119.497 185.21C118.619 185.249 117.742 185.289 116.864 185.329C116.581 185.342 116.218 185.424 116.183 185.705C116.167 185.831 116.23 185.952 116.291 186.063C116.523 186.484 116.77 186.922 117.171 187.187C117.572 187.453 118.176 187.479 118.488 187.113C118.728 186.832 118.747 186.395 119.032 186.161C119.216 186.01 119.471 185.981 119.674 185.858C119.877 185.734 120.007 185.415 119.818 185.271C119.73 185.203 119.608 185.205 119.497 185.21ZM96.7762 186.678C97.0107 186.312 96.7889 185.794 96.4236 185.559C96.0583 185.324 95.6018 185.295 95.1678 185.274C94.6885 185.25 94.0574 185.338 93.9714 185.81C93.9304 186.035 94.045 186.256 94.1557 186.456C94.4809 187.043 94.9594 187.716 95.6274 187.65C96.1451 187.599 96.4955 187.116 96.7762 186.678ZM131.439 181.416C131.833 181.448 132.186 181.181 132.462 180.899C133.305 180.037 133.841 178.881 133.954 177.681C133.675 177.503 133.334 177.78 133.121 178.032C132.403 178.881 131.686 179.729 130.968 180.578C130.713 180.879 131.046 181.383 131.439 181.416ZM87.5451 175.405C87.9453 175.905 88.7171 176.062 89.281 175.758C89.5697 175.602 89.8134 175.292 89.756 174.969C89.7049 174.681 89.443 174.486 89.2015 174.321C88.8526 174.083 88.5037 173.845 88.1547 173.608C88.0482 173.535 87.9257 173.459 87.7994 173.485C87.7123 173.503 87.6424 173.567 87.5839 173.634C87.1622 174.117 87.145 174.904 87.5451 175.405ZM118.534 170.119C118.953 170.471 119.574 170.108 119.99 169.752C120.441 169.367 120.893 168.981 121.344 168.596C121.088 168.352 120.68 168.407 120.335 168.478C119.33 168.686 118.325 168.893 117.321 169.101C117.725 169.441 118.13 169.78 118.534 170.119ZM134.311 165.191C134.563 165.506 135.096 165.439 135.386 165.157C135.676 164.876 135.783 164.46 135.866 164.065C135.886 163.97 135.905 163.867 135.865 163.779C135.764 163.553 135.429 163.621 135.206 163.726C134.604 164.006 133.895 164.673 134.311 165.191Z" fill="white"/>
<path id="Shape_2" fill-rule="evenodd" clip-rule="evenodd" d="M55.5805 131.489C58.0612 119.22 66.5429 108.949 77.0744 102.183C71.7497 109.482 55.4093 121.453 60.6614 134.788C69.0567 156.105 101.716 159.458 100.58 159.69C81.2633 163.628 53.7336 140.624 55.5805 131.489Z" fill="#E7EAEE"/>
<g id="Food">
<path id="Combined Shape" fill-rule="evenodd" clip-rule="evenodd" d="M117.368 25.0178C116.024 25.1809 114.84 26.2571 114.55 27.5792C125.428 21.7306 138.567 20.227 150.485 23.4668C150.495 29.4772 146.279 35.2582 140.553 37.0849L128.139 41.0453C131.414 41.4085 134.778 40.9283 137.821 39.6635C138.902 41.3668 140.683 42.6108 142.654 43.0397L138.838 43.8765C139.4 45.5908 140.549 47.1067 142.047 48.1118C140.776 47.6764 139.361 47.672 138.087 48.0994L138.941 51.2019C133.315 50.4215 127.302 51.1877 122.563 54.3196C117.824 57.4515 114.642 63.2087 115.496 68.8247C116.495 62.7188 120.679 57.2254 126.3 54.6396C131.921 52.0539 138.815 52.4511 144.102 55.6652L140.516 58.3216C141.893 58.8694 143.525 58.7295 144.789 57.9551C147.549 59.1763 146.785 64.2268 143.787 64.5766L147.753 64.8523C148.44 71.5959 144.274 78.5502 138.004 81.1261C131.734 83.7019 123.883 81.6847 119.631 76.4055C114.353 79.1007 114.723 87.2694 118.485 91.8488C121.111 95.0455 124.727 97.1223 128.349 99.2026L128.349 99.2026L128.349 99.2027L128.349 99.2028L128.349 99.2029L128.349 99.2029L128.349 99.203L128.349 99.2031L128.349 99.2031L128.35 99.2032L128.35 99.2033L128.35 99.2033L128.35 99.2034L128.35 99.2035L128.35 99.2035L128.35 99.2036L128.35 99.2037L128.351 99.2037L128.351 99.2038L128.351 99.2039L128.351 99.2039L128.351 99.204L128.351 99.2041L128.351 99.2042L128.351 99.2042L128.351 99.2043L128.352 99.2044L128.352 99.2044L128.352 99.2045L128.352 99.2046L128.352 99.2046L128.352 99.2047L128.352 99.2048L128.352 99.2048L128.352 99.2049C129.918 100.104 131.484 101.003 132.972 101.995C140.883 107.264 146.78 115.481 149.239 124.662C144.944 127.538 141.122 131.122 137.976 135.224C142.631 135.007 147.189 133.108 150.621 129.957L151.354 137.046C147.586 138.207 144.2 140.576 141.818 143.718C145.177 144.06 148.64 143.275 151.523 141.519C150.49 149.677 148.626 157.729 145.97 165.511L137.309 165.44C139.364 159.761 141.445 153.652 139.931 147.805C138.417 141.959 131.627 137.133 126.283 139.945C132.429 134.991 137.084 128.209 139.496 120.692L124.018 140.672L112.14 140.772C111.767 135.176 111.407 129.44 112.998 124.062C114.589 118.683 118.561 113.648 124.034 112.422C124.628 112.289 125.261 112.181 125.901 112.071C128.576 111.613 131.397 111.129 132.182 108.712C123.31 108.196 114.416 113.876 111.153 122.142C108.827 128.032 109.237 134.598 109.683 140.915C101.481 139.732 93.0822 139.922 84.9421 141.475C83.5289 136.658 82.0635 131.733 79.0992 127.682C76.135 123.631 71.3227 120.558 66.3277 121.058C74.372 122.254 78.3568 131.192 81.3901 138.738C84.4235 146.284 89.9299 154.903 98.0282 154.156C100.335 153.944 101.069 157.732 99.3012 159.229C97.5336 160.726 94.9071 160.44 92.6445 159.945C80.9896 157.395 70.108 151.41 61.7124 142.933C60.0776 141.283 58.4969 139.477 57.7416 137.28C56.8096 134.57 57.2438 131.576 58.0452 128.824C62.139 114.766 74.738 105.134 86.7113 96.7052C93.153 92.1707 92.9219 80.9338 86.2993 76.6679C81.397 81.1228 74.8605 84.2377 68.2764 83.511C61.6923 82.7842 55.4609 77.3934 55.2486 70.7727C57.3165 70.5905 59.3434 69.9556 61.1457 68.9256C59.3766 68.297 57.3828 68.3239 55.6312 68.9999C55.1549 67.2156 55.5028 65.2288 56.5568 63.7124L60.3107 63.3113C59.5561 62.458 58.5035 61.8735 57.3803 61.6841C60.0894 57.1697 66.3774 55.9341 71.4164 57.4596C76.4555 58.9851 80.5365 62.6195 84.4408 66.1515C80.3696 57.2255 69.3302 54.3483 59.6916 52.5191L63.8976 50.0273C61.4669 49.3649 58.7852 49.6764 56.571 50.8782C58.0165 52.6689 59.9677 54.0469 62.1388 54.8101C58.6688 59.7495 52.5441 62.6975 46.5189 62.3285C40.5952 61.9656 34.5622 63.7793 29.8206 67.3485C37.5261 64.2153 45.9439 62.8492 54.2448 63.3847L52.8651 69.3627C48.0733 70.2587 43.5006 72.3047 39.6393 75.2805L52.6902 70.8729C53.998 77.5588 59.2862 83.3053 65.8405 85.1631C72.3948 87.0208 79.9118 84.9038 84.5334 79.8986C89.4383 80.8717 90.6151 87.9531 87.9339 92.174C85.8108 95.5162 82.3382 97.598 78.8957 99.6618C77.9906 100.204 77.0876 100.746 76.2117 101.308C65.6803 108.074 58.0612 119.22 55.5806 131.489C53.0999 143.759 55.7905 156.989 62.8663 167.314C51.1793 171.737 43.4091 184.759 45.0663 197.145C45.1043 197.428 45.1464 197.714 45.1887 198C45.4388 199.694 45.694 201.424 45.119 203.015C44.4468 204.876 42.0323 206.254 40.4455 205.072C35.9187 201.702 30.6102 199.388 25.0598 198.367C21.7923 197.765 16.997 199.117 17.6931 202.366C17.9252 203.449 18.7781 204.275 19.606 205.011C28.1962 212.647 38.6591 218.16 49.8138 220.928C52.3379 221.555 55.142 222.011 57.43 220.774C60.6874 219.014 61.2222 215.067 61.7594 211.101C62.2874 207.203 62.8178 203.288 65.9389 201.415C68.7573 199.725 72.2302 200.673 75.4854 201.561C75.9203 201.68 76.3512 201.798 76.7762 201.908C84.5166 203.914 92.5438 203.149 100.574 202.383L100.575 202.383L100.576 202.382L100.576 202.382L100.577 202.382L100.577 202.382L100.578 202.382L100.578 202.382L100.579 202.382L100.58 202.382L100.58 202.382L100.581 202.382L100.581 202.382L100.582 202.382L100.582 202.382L100.583 202.382L100.584 202.382L100.584 202.382L100.585 202.382L100.585 202.382L100.586 202.382L100.586 202.382L100.587 202.382L100.588 202.382L100.588 202.381L100.589 202.381L100.589 202.381L100.59 202.381L100.59 202.381L100.591 202.381L100.592 202.381L100.592 202.381L100.593 202.381L100.593 202.381L100.594 202.381C103.757 202.079 106.921 201.777 110.069 201.646C118.818 201.28 127.623 202.25 136.083 204.513C139.029 205.301 141.959 203.83 144.749 202.43L144.75 202.43L144.751 202.429L144.761 202.424C145.171 202.218 145.579 202.014 145.983 201.818C149.136 200.293 153.458 199.489 155.708 202.174C156.598 203.236 156.926 204.597 157.256 205.964C157.42 206.641 157.584 207.32 157.816 207.964C159.331 212.168 163.875 214.743 168.336 214.993C172.798 215.243 177.154 213.551 181.053 211.367C188.439 207.231 194.757 201.205 199.238 194.022C199.759 193.186 200.275 192.257 200.17 191.277C199.894 188.688 196.171 188.484 193.687 189.264C186.966 191.374 180.788 195.188 175.891 200.25C173.588 198.151 172.467 194.832 173.026 191.767C186.718 182.3 201.295 172.508 217.9 171.332C220.5 171.147 223.14 171.176 225.776 171.204H225.776H225.777H225.777H225.777H225.777H225.778H225.778H225.778H225.779H225.779H225.779H225.78H225.78H225.78H225.781H225.781H225.781H225.782H225.782H225.782H225.783H225.783H225.783H225.784H225.784H225.784H225.785H225.785H225.785H225.785H225.786H225.786H225.786H225.787C231.52 171.266 237.237 171.328 242.493 169.207C252.178 165.3 257.771 152.084 251.704 143.585C247.036 137.046 237.91 135.503 229.908 136.219C216.383 137.43 203.365 143.658 193.934 153.428C191.314 156.143 188.923 159.147 186.537 162.146L186.536 162.146C181.372 168.636 176.229 175.099 168.826 178.544C163.801 171.592 155.924 166.768 147.448 165.451C153.735 153.85 155.363 139.807 151.896 127.076C148.429 114.346 139.905 103.067 128.604 96.2561C127.99 95.8858 127.363 95.5248 126.736 95.1631L126.734 95.1621L126.734 95.1621L126.734 95.162L126.734 95.162L126.734 95.1619L126.734 95.1619L126.734 95.1619L126.734 95.1618L126.734 95.1618L126.734 95.1617L126.734 95.1617L126.734 95.1616L126.733 95.1616L126.733 95.1615L126.733 95.1615L126.733 95.1611L126.732 95.1605C123.886 93.52 121.012 91.8631 119.073 89.251C116.705 86.0616 116.47 80.8226 119.791 78.643C124.207 84.7029 133.474 86.0116 140.028 82.3683C146.582 78.7249 150.314 71.0794 150.446 63.5823L167.399 63.1508C161.7 61.2445 155.475 60.9397 149.617 62.2803L147.586 56.7496L161.037 54.986C156.075 53.7361 150.756 53.9353 145.901 55.5529C144.797 53.392 143.115 51.5303 141.077 50.2143C142.991 50.4314 144.978 49.919 146.549 48.8037L142.135 45.2914C143.963 45.6274 145.948 44.4289 146.501 42.6543L139.437 39.797L167.322 26.4535C166.134 26.4326 164.944 26.4763 163.761 26.5845L167.365 24.2011C161.862 24.8663 156.434 23.3172 151.013 21.7701C145.401 20.1685 139.796 18.5691 134.123 19.4298C131.894 19.768 129.651 20.477 127.421 21.1821C122.819 22.637 118.271 24.0748 114.013 22.2001C105.349 18.3855 95.1894 18.1061 86.3291 21.4388C85.5457 21.7335 84.7498 22.0554 83.9462 22.3805L83.9459 22.3806C79.5224 24.1701 74.8616 26.0556 70.7295 24.0187C65.7566 21.5674 59.7259 23.0011 54.7398 25.4254C52.9895 26.2764 51.2907 27.2444 49.5933 28.2116L49.5933 28.2117C46.4555 29.9998 43.3224 31.7851 39.8775 32.8232C47.6518 37.5879 56.4558 40.6629 65.5061 41.7744C66.6177 42.6332 66.2295 44.5429 65.1205 45.4053C64.0116 46.2677 62.512 46.3771 61.1092 46.452C61.4703 48.9514 64.6907 50.5342 66.8902 49.2934C65.9658 49.4652 65.8969 47.9636 66.2809 47.1054L68.6771 41.7505C70.5381 42.4339 72.8542 41.3375 73.5053 39.465C68.8969 40.0197 64.1152 40.5593 59.7005 39.1256C55.2858 37.6919 51.3413 33.6922 51.5482 29.0552C61.3794 23.3591 74.5774 24.1303 83.6783 30.9328C82.9756 28.8819 81.2483 27.2112 79.1753 26.5771C81.5688 24.2206 84.7461 22.6742 88.0774 22.2443C86.0984 23.81 85.1915 26.6093 85.8763 29.0381L94.7617 20.8657C93.3042 23.4788 92.4877 26.4465 92.4036 29.4374C95.699 27.2839 98.3244 24.1203 99.8335 20.4844L103.786 21.0394C101.366 23.084 100.018 26.3328 100.28 29.49C103.291 27.6176 105.626 24.6807 106.772 21.3245C110.483 21.9241 114.088 23.1805 117.368 25.0178ZM226.554 169.69C224.566 169.624 222.577 169.558 220.601 169.614C205.885 170.032 192.205 177.199 180.064 185.524L179.78 185.719L179.553 185.876C177.249 187.46 174.922 189.06 172.292 189.995L169.202 180.99C169.036 180.507 168.934 179.843 169.383 179.6C174.108 177.045 178.422 173.733 182.111 169.829C184.569 167.227 186.749 164.369 188.926 161.514C192.01 157.47 195.088 153.434 198.943 150.144C205.099 144.89 212.849 141.883 220.625 139.641C226.38 137.981 232.41 136.679 238.329 137.591C244.249 138.502 250.077 142.035 252.248 147.617C253.972 152.051 253.128 157.28 250.472 161.227C247.816 165.173 243.503 167.859 238.881 168.985C234.862 169.965 230.711 169.827 226.554 169.69ZM57.2399 188.766C57.551 189.507 57.7473 190.494 57.1261 191.003C56.3261 191.658 55.1911 190.814 54.5188 190.028L48.7888 183.332C47.417 186.898 46.7877 190.748 46.9525 194.565C46.9856 195.331 47.048 196.109 47.1107 196.889C47.3502 199.871 47.5929 202.892 46.2119 205.477C45.6063 206.611 44.5755 207.652 43.2925 207.736C42.5653 207.783 41.8572 207.517 41.186 207.233C39.3472 206.455 37.5354 205.5 35.7242 204.544L35.7241 204.544L35.7239 204.544L35.7238 204.544L35.7237 204.544L35.7236 204.544L35.7235 204.544L35.7233 204.544L35.7232 204.544L35.7231 204.544L35.723 204.544L35.7229 204.544L35.7227 204.544L35.7226 204.544L35.7225 204.543L35.7224 204.543L35.7223 204.543L35.7221 204.543L35.722 204.543L35.7219 204.543L35.7218 204.543L35.7217 204.543L35.7215 204.543L35.7214 204.543C31.0567 202.083 26.3957 199.624 21.2877 200.211C20.5902 200.291 19.7215 200.635 19.7488 201.336C19.761 201.651 19.9659 201.921 20.1652 202.164C27.5296 211.158 39.046 215.519 50.1942 218.812C52.0174 219.351 53.9391 219.875 55.7957 219.466C57.6523 219.057 59.3757 217.383 59.1515 215.496C58.5584 210.501 60.1234 205.286 63.369 201.444C64.6648 199.91 66.303 198.544 68.2691 198.136C70.6841 197.634 73.0444 198.629 75.3687 199.609L75.3692 199.609L75.3697 199.609L75.3701 199.61L75.3706 199.61L75.3708 199.61C75.9673 199.861 76.5614 200.112 77.1535 200.336C81.6972 202.054 86.8044 202.241 91.4618 200.861C89.641 200.837 88.7665 198.654 88.3891 196.872C85.9441 185.331 84.6442 173.547 84.5148 161.751C84.5007 160.468 83.6009 159.334 82.5155 158.65C81.5968 158.071 80.5493 157.749 79.5075 157.429L79.5064 157.428C79.3179 157.37 79.1296 157.313 78.9423 157.253C75.1491 156.051 71.5748 154.162 68.4452 151.705C68.0512 151.396 67.6631 151.077 67.2749 150.758L67.2745 150.758L67.2738 150.757C66.076 149.773 64.8772 148.787 63.5021 148.082C61.681 147.147 59.4271 146.766 57.6019 147.693C57.1947 148.663 57.931 149.79 58.8731 150.259C59.5866 150.614 60.3859 150.71 61.1834 150.806L61.1842 150.806L61.1849 150.806L61.1855 150.806L61.1861 150.806L61.1867 150.806L61.1872 150.806C61.4415 150.837 61.6956 150.867 61.9466 150.906C63.1462 151.093 64.3137 151.484 65.3839 152.057C66.5081 152.659 67.5728 154.248 66.571 155.037C66.1601 155.361 65.5842 155.338 65.0626 155.3L59.1791 154.868C60.6134 158.77 62.442 162.527 64.628 166.063C64.8243 166.381 65.0862 166.734 65.4594 166.737C71.2237 166.789 77.6605 167.596 81.3134 172.055C82.0057 172.901 82.5737 174.122 81.98 175.039C78.6317 170.996 73.3941 168.588 68.1452 168.679C62.8964 168.769 57.745 171.357 54.5382 175.513C57.3687 177.408 59.6187 180.157 60.9158 183.306C61.3075 184.257 61.2354 185.813 60.2071 185.791L54.0308 178.229C53.7548 177.891 53.4232 177.525 52.9871 177.511C52.6374 177.5 52.3291 177.724 52.0517 177.937C51.4509 178.399 50.8275 178.889 50.5139 179.578C50.2003 180.268 50.317 181.217 50.9703 181.601C53.7545 183.236 55.9888 185.79 57.2399 188.766ZM127.653 200.601C131.62 197.292 132.913 191.844 133.978 186.79L137.881 168.271C137.923 168.073 137.971 167.863 138.113 167.719C138.301 167.53 138.596 167.509 138.863 167.501C145.977 167.286 153.551 167.964 159.281 172.186C156.943 173.345 154.899 175.092 153.391 177.222C152.967 177.819 152.614 178.718 153.159 179.207C153.363 179.39 153.648 179.455 153.922 179.474C155.288 179.572 156.535 178.718 157.534 177.781C157.749 177.579 157.96 177.37 158.172 177.161L158.172 177.16C158.941 176.399 159.715 175.634 160.691 175.187C161.936 174.617 163.666 174.777 164.353 175.961C162.132 177.093 160.303 178.974 159.234 181.226C158.956 181.812 158.726 182.49 158.951 183.098C159.177 183.707 160.063 184.063 160.499 183.582L164.789 178.846C164.997 178.617 165.285 178.366 165.575 178.472C165.732 178.529 165.834 178.677 165.924 178.818C168.198 182.386 169.101 186.54 170.009 190.712C170.541 193.155 171.073 195.604 171.883 197.946C172.532 199.822 173.785 201.929 175.77 201.93C176.867 201.931 177.838 201.256 178.706 200.586C179.633 199.87 180.555 199.12 181.481 198.366L181.482 198.366L181.482 198.366L181.482 198.365L181.483 198.365L181.483 198.365L181.483 198.365L181.483 198.364L181.484 198.364L181.484 198.364L181.484 198.364L181.484 198.363L181.485 198.363L181.485 198.363L181.485 198.363L181.486 198.363C185.849 194.812 190.311 191.18 195.806 190.746C196.672 190.677 197.784 190.868 197.987 191.713C198.105 192.203 197.841 192.697 197.578 193.128C193.493 199.813 187.367 205.085 180.599 209.03C177.134 211.051 173.334 212.786 169.323 212.817C165.312 212.848 161.065 210.797 159.549 207.083C159.24 206.326 159.051 205.526 158.862 204.727L158.862 204.727C158.643 203.803 158.425 202.88 158.021 202.024C156.981 199.818 154.676 198.265 152.241 198.13C149.923 198.002 147.79 199.035 145.663 200.065L145.662 200.065C144.915 200.427 144.168 200.789 143.414 201.1C138.407 203.165 132.52 202.979 127.653 200.601ZM101.177 160.73C99.6846 162.004 97.6762 162.513 95.7189 162.657C92.1924 162.915 88.5936 162.09 85.5325 160.32L86.7955 165.101C86.8499 165.307 86.9148 165.529 87.0859 165.656C87.2345 165.766 87.4312 165.78 87.616 165.789L105.765 166.743C108.411 166.882 111.06 167.021 113.708 166.945C121.137 166.73 128.51 164.791 135.083 161.323C135.462 161.123 135.848 160.91 136.121 160.579C136.447 160.185 136.575 159.669 136.684 159.17C137.605 154.947 137.764 150.56 137.152 146.282C137.002 145.231 136.792 144.153 136.201 143.271C135.611 142.389 134.548 141.745 133.505 141.943C122.825 143.977 111.922 143.349 101.02 142.721L101.019 142.721C96.9103 142.484 92.8018 142.247 88.7053 142.153C87.9739 142.136 87.2046 142.133 86.5621 142.482C85.9196 142.832 85.4774 143.663 85.8074 144.316C87.6755 148.012 91.5353 150.37 95.5374 151.434C95.823 151.51 96.1152 151.585 96.4109 151.66L96.4136 151.661L96.4157 151.661L96.4167 151.661C99.0055 152.32 101.857 153.045 102.797 155.455C103.51 157.283 102.67 159.456 101.177 160.73ZM130.296 192.055C129.564 194.962 128.025 197.977 125.232 199.067C124.255 199.449 123.198 199.562 122.153 199.659C112.472 200.56 102.687 200.343 93.0555 199.014C92.482 198.935 91.8775 198.838 91.4304 198.47C90.8861 198.022 90.7015 197.281 90.5589 196.59C90.1216 194.474 89.7827 192.337 89.5438 190.189C89.5015 189.809 89.607 189.266 89.9886 189.295C96.1519 189.775 102.333 190.027 108.515 190.05C112.779 190.067 117.077 189.971 121.242 189.054C125.407 188.138 129.468 186.348 132.513 183.363C131.647 185.18 131.274 187.166 130.901 189.155C130.719 190.127 130.536 191.1 130.296 192.055ZM109.474 179.983C109.079 180.368 108.653 180.825 108.681 181.375C108.709 181.926 109.535 182.337 109.82 181.865C111.376 179.288 114.081 177.435 117.046 176.916C120.011 176.397 123.185 177.221 125.523 179.116C125.766 179.313 126.002 179.522 126.237 179.73C126.791 180.221 127.345 180.712 128 181.051C128.335 181.226 128.91 181.23 128.923 180.852C128.928 180.728 128.857 180.616 128.787 180.513C127.108 178.038 124.597 176.138 121.759 175.195C119.271 174.368 116.388 174.316 114.163 175.702C113.355 176.206 112.666 176.875 111.984 177.54L109.474 179.983ZM88.5742 178.575C90.7193 176.135 94.1872 175.054 97.4083 175.48C100.629 175.906 103.576 177.72 105.716 180.165C106.093 180.596 106.463 181.215 106.157 181.699C105.901 182.104 105.289 182.134 104.869 181.904C104.502 181.703 104.24 181.364 103.982 181.03L103.923 180.953C103.905 180.93 103.887 180.907 103.869 180.885C101.975 178.474 98.879 177.06 95.8168 177.204C92.7546 177.348 89.8059 179.049 88.1467 181.626C87.7146 181.25 87.5923 180.605 87.7224 180.047C87.8525 179.489 88.1961 179.006 88.5742 178.575ZM120.13 172.182C120.08 172.727 120.799 173.066 121.316 172.887C121.782 172.727 122.106 172.325 122.418 171.938C122.453 171.895 122.488 171.852 122.522 171.809C125.402 168.288 130.885 167.227 134.871 169.42C135.393 168.978 135.423 168.132 135.073 167.544C134.724 166.956 134.085 166.595 133.433 166.386C132.021 165.935 130.489 166.089 129.036 166.383C125.598 167.078 122.125 168.708 120.317 171.715C120.23 171.86 120.145 172.013 120.13 172.182ZM102.494 184.587C103.817 184.081 105.2 183.707 106.613 183.608C110.109 183.365 113.682 184.935 115.867 187.675C114.936 188.34 113.71 187.531 112.753 186.899L112.744 186.893C109.691 184.876 105.519 184.696 102.303 186.441C102.052 186.577 101.799 186.725 101.544 186.875L101.544 186.875C100.341 187.579 99.0902 188.312 97.7955 187.945C98.8657 186.306 100.666 185.287 102.494 184.587ZM112.418 182.725C112.966 182.439 113.458 182.062 113.95 181.685C114.42 181.325 114.89 180.965 115.41 180.684C116.874 179.892 118.698 179.801 120.234 180.443C120.682 180.63 121.102 180.874 121.523 181.118C121.885 181.328 122.248 181.538 122.628 181.712C123.45 182.089 124.429 182.284 125.247 181.901C125.338 181.858 125.432 181.802 125.471 181.71C125.533 181.559 125.422 181.397 125.315 181.274C123.483 179.183 120.612 178.05 117.845 178.326C115.079 178.602 112.488 180.28 111.106 182.692C111.394 183.072 111.995 182.945 112.418 182.725ZM91.938 182.068L91.9379 182.068C91.626 182.344 91.3145 182.619 90.9537 182.824C90.3794 183.151 89.6064 183.261 89.0871 182.852C88.9264 181.989 89.7977 181.318 90.5564 180.875C92.4272 179.784 94.4379 178.656 96.6011 178.768C98.3316 178.857 99.9113 179.733 101.406 180.61C101.773 180.826 102.151 181.052 102.402 181.396C102.653 181.74 102.747 182.235 102.512 182.591C102.275 182.95 101.776 183.056 101.356 182.958C100.952 182.865 100.603 182.622 100.262 182.385L100.222 182.357C99.0128 181.518 97.6942 180.744 96.2319 180.574C94.9197 180.422 93.552 180.791 92.5022 181.592C92.3071 181.741 92.1225 181.905 91.938 182.068ZM100.696 174.439C101.086 174.945 101.851 174.403 102.282 173.932C103.61 172.481 105.524 171.582 107.489 171.488C109.454 171.394 111.446 172.105 112.907 173.422L112.962 173.472L112.996 173.503C113.338 173.815 113.704 174.147 114.16 174.16C114.656 174.173 115.102 173.481 114.709 173.179C112.603 171.561 110.152 170.238 107.502 170.064C104.852 169.889 101.996 171.078 100.769 173.434C100.604 173.749 100.478 174.158 100.696 174.439ZM124.884 173.399L124.884 173.399C124.656 173.633 124.426 173.87 124.128 173.996C123.779 174.144 123.298 174.073 123.129 173.733C122.951 173.374 123.2 172.955 123.46 172.649C126.01 169.648 130.811 168.87 134.178 170.912C134.694 171.225 135.235 171.832 134.931 172.353C134.568 172.978 133.626 172.579 133 172.217C130.496 170.768 127.041 171.227 125.002 173.278L124.967 173.314L124.937 173.344L124.884 173.399ZM125.99 174.189C125.845 174.31 125.701 174.446 125.64 174.624C125.47 175.123 126.076 175.589 126.601 175.548C126.981 175.517 127.32 175.332 127.659 175.147C127.788 175.076 127.917 175.006 128.049 174.944C129.211 174.396 130.607 174.526 131.786 175.035C131.851 175.063 131.915 175.093 131.98 175.122C132.026 175.144 132.073 175.165 132.12 175.187C132.472 175.351 132.825 175.515 133.207 175.573C133.71 175.648 134.296 175.482 134.525 175.028C132.526 172.551 128.432 172.149 125.99 174.189ZM95.2897 173.084C95.0978 173.351 94.6909 173.378 94.3927 173.238C94.1156 173.108 93.9079 172.872 93.7051 172.641L93.705 172.641L93.6587 172.588C92.2579 170.999 90.4428 169.779 88.4429 169.082C87.9235 168.901 87.2635 168.541 87.4095 168.01C88.8453 167.52 90.469 167.905 91.7581 168.705C93.0473 169.505 94.0562 170.679 94.9941 171.871C95.2711 172.224 95.5507 172.72 95.2897 173.084ZM112.066 174.569C109.706 173.064 106.484 173.038 104.1 174.504C103.685 174.759 103.26 175.117 103.227 175.602C103.195 176.088 103.854 176.538 104.181 176.178C105.499 174.726 107.905 174.425 109.54 175.507C110.343 176.039 111.495 175.966 112.225 175.338C112.569 175.302 112.358 174.756 112.066 174.569ZM120.326 186.778C122.761 184.46 125.881 182.487 129.235 182.713C129.579 182.737 130.042 183.027 129.834 183.303L121.517 186.902C121.108 187.079 120.503 187.187 120.326 186.778ZM97.3182 184.207C97.4001 184.253 97.4816 184.303 97.5633 184.353C97.8937 184.554 98.2286 184.759 98.6086 184.759C99.0827 184.759 99.5527 184.189 99.2521 183.822C98.3051 182.667 96.8168 181.977 95.3238 182C93.8308 182.023 92.3643 182.758 91.4532 183.941C91.5655 184.371 92.0916 184.569 92.5313 184.505C92.8482 184.459 93.1379 184.317 93.4277 184.176L93.4283 184.175C93.5403 184.12 93.6523 184.066 93.766 184.017C94.8938 183.528 96.2491 183.6 97.3182 184.207ZM114.616 184.456C114.284 184.475 113.91 184.222 113.947 183.892C113.961 183.77 114.028 183.661 114.098 183.56C114.866 182.454 116.256 181.89 117.603 181.877C118.949 181.865 120.258 182.342 121.447 182.974C121.779 183.151 122.152 183.431 122.098 183.803C121.547 184.39 120.635 184.075 119.839 183.801C119.751 183.771 119.664 183.741 119.58 183.713C118.256 183.273 116.752 183.411 115.53 184.084C115.488 184.107 115.446 184.131 115.404 184.155C115.154 184.297 114.9 184.441 114.616 184.456ZM111.444 169.402C112.831 169.899 114.122 170.659 115.228 171.631C115.253 171.653 115.279 171.676 115.304 171.699L115.354 171.743L115.458 171.837C115.835 172.176 116.214 172.518 116.673 172.726C117.227 172.975 117.945 172.982 118.378 172.556C117.42 171.822 116.633 170.865 116.096 169.784C115.807 169.201 115.036 169.095 114.387 169.063L111.539 168.924C111.438 169.059 111.403 169.239 111.444 169.402ZM99.8376 171.846L99.8375 171.846C99.5936 172.157 99.35 172.467 99.0619 172.736C98.5717 173.194 97.8957 173.529 97.2408 173.385C97.9062 171.77 98.9818 170.327 100.338 169.228C101.307 168.443 102.709 168.615 103.937 168.829C104.002 169.273 103.432 169.494 102.999 169.61C101.994 169.878 101.069 170.439 100.367 171.206C100.18 171.41 100.009 171.628 99.8376 171.846ZM88.1437 172.18L90.7844 173.9C91.1571 174.143 91.6329 174.392 92.0194 174.172C92.3782 173.968 92.433 173.442 92.246 173.074C92.059 172.706 91.7025 172.46 91.3602 172.229L89.2102 170.782C88.61 170.378 87.6323 170.055 87.3058 170.701C87.0244 171.258 87.6211 171.839 88.1437 172.18ZM107.914 179.565C107.486 179.77 107.014 179.409 106.677 179.075L105.578 177.984C105.449 177.856 105.309 177.7 105.332 177.519C105.346 177.405 105.423 177.31 105.503 177.227C106.535 176.147 108.496 176.177 109.495 177.288L108.35 179.097C108.235 179.28 108.109 179.472 107.914 179.565ZM91.2738 187.699C91.9896 187.95 92.8345 188.024 93.4659 187.604C92.5154 186.511 91.4015 185.56 90.1725 184.793C89.8239 184.576 89.4308 184.365 89.024 184.423C88.6171 184.481 88.257 184.944 88.454 185.304C89.0587 186.411 90.0837 187.282 91.2738 187.699ZM131.563 177.686L130.548 178.912C130.452 179.029 130.344 179.152 130.197 179.184C129.974 179.233 129.77 179.056 129.61 178.894L128.137 177.401C127.92 177.182 127.982 176.789 128.197 176.569C128.413 176.348 128.732 176.264 129.038 176.227C129.839 176.131 130.669 176.296 131.372 176.692C131.574 176.805 131.786 176.972 131.795 177.204C131.803 177.386 131.68 177.545 131.563 177.686ZM95.2478 170.081C95.5512 170.408 95.9324 170.742 96.3767 170.706C96.8371 170.668 97.1468 170.264 97.4513 169.867C97.7769 169.443 98.0967 169.026 98.5886 169.073C98.8441 168.651 98.1467 168.314 97.6541 168.307L93.8293 168.246C94.2455 168.899 94.7209 169.514 95.2478 170.081ZM111.078 187.966L103.122 188.001C103.208 187.589 103.672 187.391 104.078 187.281C105.892 186.789 107.821 186.731 109.662 187.113C110.223 187.229 110.845 187.442 111.078 187.966ZM119.497 185.21L116.864 185.329C116.581 185.342 116.218 185.424 116.183 185.705C116.167 185.831 116.23 185.952 116.291 186.063C116.523 186.484 116.77 186.922 117.171 187.187C117.572 187.453 118.176 187.479 118.488 187.113C118.596 186.987 118.659 186.829 118.721 186.673C118.798 186.481 118.875 186.29 119.032 186.161C119.136 186.076 119.263 186.029 119.391 185.982C119.488 185.947 119.586 185.911 119.674 185.858C119.877 185.734 120.007 185.415 119.818 185.271C119.73 185.203 119.608 185.205 119.497 185.21ZM96.4236 185.559C96.7889 185.794 97.0107 186.312 96.7762 186.678C96.4955 187.116 96.1451 187.599 95.6273 187.65C94.9594 187.716 94.4809 187.043 94.1557 186.456C94.045 186.256 93.9305 186.035 93.9714 185.81C94.0574 185.338 94.6885 185.25 95.1678 185.274C95.6018 185.295 96.0583 185.324 96.4236 185.559ZM131.439 181.416C131.833 181.448 132.186 181.181 132.462 180.899C133.305 180.037 133.841 178.881 133.954 177.681C133.675 177.503 133.334 177.78 133.121 178.032L130.968 180.578C130.713 180.879 131.046 181.383 131.439 181.416ZM89.281 175.758C88.7171 176.062 87.9453 175.905 87.5451 175.405C87.145 174.904 87.1622 174.117 87.5839 173.634C87.6424 173.567 87.7123 173.503 87.7994 173.485C87.9257 173.459 88.0482 173.535 88.1547 173.608L89.2015 174.321C89.443 174.486 89.7049 174.681 89.756 174.969C89.8134 175.292 89.5697 175.602 89.281 175.758ZM118.534 170.119C118.953 170.471 119.574 170.108 119.99 169.752L121.344 168.596C121.088 168.352 120.68 168.407 120.335 168.478L117.321 169.101L118.534 170.119ZM57.6042 143.611C57.2964 143.338 57.2176 142.89 57.2084 142.479C57.1979 142.014 57.2524 141.548 57.3696 141.098L59.3672 143.699C59.4864 143.854 59.5843 144.121 59.4081 144.206C59.1584 144.038 58.8514 143.991 58.5463 143.944C58.2011 143.89 57.8585 143.837 57.6042 143.611ZM134.311 165.191C134.563 165.506 135.096 165.439 135.386 165.157C135.676 164.876 135.783 164.46 135.866 164.065C135.886 163.97 135.905 163.867 135.865 163.779C135.764 163.553 135.429 163.621 135.206 163.726C134.604 164.006 133.895 164.673 134.311 165.191ZM111.705 50.2101C111.949 49.5995 112.518 49.1871 113.079 48.8429C114.77 47.8041 116.648 47.0705 118.596 46.6879C119.062 46.5964 119.617 46.5517 119.941 46.8995C120.305 47.2907 120.123 47.9673 119.719 48.317C119.359 48.6285 118.885 48.7564 118.422 48.8814C118.365 48.8967 118.309 48.9119 118.252 48.9275C116.695 49.3588 115.229 50.1204 113.981 51.1473C113.501 51.5421 112.932 52.0071 112.334 51.8408C111.7 51.6647 111.46 50.8207 111.705 50.2101ZM76.6693 50.3529C76.2171 50.1081 75.9118 49.4972 76.1932 49.0668C76.3569 48.8164 76.662 48.7024 76.9519 48.6288C79.3002 48.0327 81.7314 49.085 83.8555 50.2504C84.3336 50.5128 84.8258 50.7985 85.1272 51.2531C85.4286 51.7076 85.4727 52.3811 85.0794 52.759C84.4211 53.3915 83.3776 52.7409 82.6344 52.2107C81.3331 51.2824 79.7695 50.726 78.1742 50.6236C78.103 50.619 78.0314 50.6152 77.9595 50.6114L77.9593 50.6114C77.513 50.5878 77.0588 50.5637 76.6693 50.3529ZM101.287 84.0211L99.742 79.6156C98.3673 80.6078 97.3395 82.0714 96.873 83.7014C96.451 83.3583 96.4354 82.7779 96.4201 82.208C96.4155 82.0377 96.411 81.8682 96.3956 81.7063C96.3043 80.746 95.7012 79.8493 94.8461 79.4027C93.9909 78.9562 92.9104 78.9737 92.0701 79.4476C92.293 79.9354 92.8181 80.0902 93.3586 80.2496C93.7176 80.3554 94.0833 80.4633 94.3719 80.6719C94.9814 81.1126 95.156 81.9431 95.1654 82.6952C95.1678 82.8838 95.1629 83.0737 95.1581 83.2638V83.264C95.1436 83.8321 95.1291 84.4011 95.3066 84.936C95.3639 85.1087 95.4451 85.2809 95.585 85.3973C95.9812 85.7269 96.5812 85.453 96.9824 85.1295C97.8889 84.3987 98.6017 83.4298 99.0296 82.3469C99.4069 82.7238 99.5463 83.2533 99.6847 83.7786L99.6848 83.7789L99.6848 83.7791C99.7254 83.9332 99.7659 84.0869 99.8122 84.2363C100.017 84.8953 100.506 85.5996 101.195 85.5677C101.654 85.5464 102.025 85.2006 102.35 84.8757L104.219 83.0088C104.444 82.7838 104.688 82.4977 104.616 82.1877C104.546 81.8901 104.193 81.7308 103.891 81.7735C103.588 81.8163 103.329 82.007 103.093 82.2002C102.429 82.7415 101.823 83.353 101.287 84.0211ZM97.0179 66.3497C97.1176 65.5423 97.1725 64.6016 96.5792 64.0448C95.4723 63.0059 94.5029 61.8207 93.7041 60.5297C93.3557 59.9667 93.0287 59.309 93.1947 58.6681C93.4455 57.7 94.6222 57.35 95.6149 57.2291C97.203 57.0357 98.8106 57.0029 100.405 57.1313C101.09 57.1864 101.817 57.2894 102.341 57.7339C102.866 58.1784 103.055 59.0797 102.549 59.5449C100.068 61.8256 98.6148 65.1853 98.6524 68.5553C99.5724 69.1524 100.507 69.7568 101.556 70.0798C102.604 70.4028 103.798 70.4134 104.744 69.8574C105.142 69.6233 105.476 69.303 105.81 68.982L105.81 68.982C106.042 68.7603 106.273 68.5384 106.526 68.3443C107.146 67.8691 108.032 67.5747 108.696 67.9857L106.171 70.3112C105.164 71.238 103.914 72.2348 102.582 71.9228C102.141 71.8195 101.753 71.5808 101.364 71.3413C101.133 71.1988 100.901 71.0559 100.657 70.9411C99.3525 70.3272 97.8219 70.5566 96.4122 70.8592C96.3269 70.8775 96.2414 70.8961 96.1556 70.9146L96.1542 70.915C94.8238 71.2032 93.4471 71.5016 92.1413 71.1433C90.7508 70.7619 89.5312 69.3167 89.9664 67.9421C90.8417 69.2232 92.3657 70.0351 93.9172 70.047C94.513 70.0516 95.1272 69.9375 95.6208 69.6038C96.6311 68.9209 96.8685 67.56 97.0179 66.3497Z" fill="#00160A"/>
</g>
</g>
</svg>
