<svg width="24" height="24" viewBox="0 0 24 24" fill="none" xmlns="http://www.w3.org/2000/svg">
<path d="M12 11.9932C11.8011 11.9932 11.6103 12.0722 11.4697 12.2128C11.329 12.3535 11.25 12.5443 11.25 12.7432V12.7492C11.25 13.1632 11.586 13.4992 12 13.4992H12.006C12.2049 13.4992 12.3957 13.4201 12.5363 13.2795C12.677 13.1388 12.756 12.9481 12.756 12.7492V12.7432C12.756 12.5443 12.677 12.3535 12.5363 12.2128C12.3957 12.0722 12.2049 11.9932 12.006 11.9932H12ZM12 16.4942C11.8011 16.4942 11.6103 16.5732 11.4697 16.7138C11.329 16.8545 11.25 17.0453 11.25 17.2442V17.2492C11.25 17.6632 11.585 17.9992 12 17.9992H12.005C12.2039 17.9992 12.3947 17.9201 12.5353 17.7795C12.676 17.6388 12.755 17.4481 12.755 17.2492V17.2442C12.755 17.0453 12.676 16.8545 12.5353 16.7138C12.3947 16.5732 12.2039 16.4942 12.005 16.4942H12ZM8.99899 17.2442C8.99899 17.0453 9.078 16.8545 9.21866 16.7138C9.35931 16.5732 9.55007 16.4942 9.74899 16.4942H9.75499C9.9539 16.4942 10.1447 16.5732 10.2853 16.7138C10.426 16.8545 10.505 17.0453 10.505 17.2442V17.2502C10.505 17.4491 10.426 17.6398 10.2853 17.7805C10.1447 17.9211 9.9539 18.0002 9.75499 18.0002H9.74899C9.55007 18.0002 9.35931 17.9211 9.21866 17.7805C9.078 17.6398 8.99899 17.4491 8.99899 17.2502V17.2442ZM7.49899 16.4942C7.30007 16.4942 7.10931 16.5732 6.96866 16.7138C6.828 16.8545 6.74899 17.0453 6.74899 17.2442V17.2492C6.74899 17.6632 7.08499 17.9992 7.49899 17.9992H7.50399C7.7029 17.9992 7.89366 17.9201 8.03432 17.7795C8.17497 17.6388 8.25399 17.4481 8.25399 17.2492V17.2442C8.25399 17.0453 8.17497 16.8545 8.03432 16.7138C7.89366 16.5732 7.7029 16.4942 7.50399 16.4942H7.49899ZM13.499 14.9972C13.499 14.7983 13.578 14.6075 13.7187 14.4668C13.8593 14.3262 14.0501 14.2472 14.249 14.2472H14.255C14.4539 14.2472 14.6447 14.3262 14.7853 14.4668C14.926 14.6075 15.005 14.7983 15.005 14.9972V15.0022C15.005 15.2011 14.926 15.3918 14.7853 15.5325C14.6447 15.6731 14.4539 15.7522 14.255 15.7522H14.249C14.0501 15.7522 13.8593 15.6731 13.7187 15.5325C13.578 15.3918 13.499 15.2011 13.499 15.0022V14.9972ZM14.25 16.4942C14.0511 16.4942 13.8603 16.5732 13.7197 16.7138C13.579 16.8545 13.5 17.0453 13.5 17.2442V17.2502C13.5 17.6642 13.835 18.0002 14.25 18.0002H14.255C14.4539 18.0002 14.6447 17.9211 14.7853 17.7805C14.926 17.6398 15.005 17.4491 15.005 17.2502V17.2442C15.005 17.0453 14.926 16.8545 14.7853 16.7138C14.6447 16.5732 14.4539 16.4942 14.255 16.4942H14.25ZM15.75 14.9952C15.75 14.7963 15.829 14.6055 15.9697 14.4648C16.1103 14.3242 16.3011 14.2452 16.5 14.2452H16.505C16.7039 14.2452 16.8947 14.3242 17.0353 14.4648C17.176 14.6055 17.255 14.7963 17.255 14.9952V15.0012C17.255 15.2001 17.176 15.3908 17.0353 15.5315C16.8947 15.6721 16.7039 15.7512 16.505 15.7512H16.5C16.3011 15.7512 16.1103 15.6721 15.9697 15.5315C15.829 15.3908 15.75 15.2001 15.75 15.0012V14.9952ZM13.498 12.7432C13.498 12.5443 13.577 12.3535 13.7177 12.2128C13.8583 12.0722 14.0491 11.9932 14.248 11.9932H16.498C16.6969 11.9932 16.8877 12.0722 17.0283 12.2128C17.169 12.3535 17.248 12.5443 17.248 12.7432C17.248 12.9421 17.169 13.1328 17.0283 13.2735C16.8877 13.4141 16.6969 13.4932 16.498 13.4932H14.248C14.0491 13.4932 13.8583 13.4141 13.7177 13.2735C13.577 13.1328 13.498 12.9421 13.498 12.7432ZM6.74799 14.9932C6.74799 14.7943 6.827 14.6035 6.96766 14.4628C7.10831 14.3222 7.29907 14.2432 7.49799 14.2432H11.998C12.1969 14.2432 12.3877 14.3222 12.5283 14.4628C12.669 14.6035 12.748 14.7943 12.748 14.9932C12.748 15.1921 12.669 15.3828 12.5283 15.5235C12.3877 15.6641 12.1969 15.7432 11.998 15.7432H7.49799C7.29907 15.7432 7.10831 15.6641 6.96766 15.5235C6.827 15.3828 6.74799 15.1921 6.74799 14.9932Z" fill="#64748B"/>
<path fill-rule="evenodd" clip-rule="evenodd" d="M18 2.99316C18 2.79425 17.921 2.60349 17.7803 2.46283C17.6397 2.32218 17.4489 2.24316 17.25 2.24316C17.0511 2.24316 16.8603 2.32218 16.7197 2.46283C16.579 2.60349 16.5 2.79425 16.5 2.99316V4.49316H7.49999V2.99416C7.49999 2.79525 7.42097 2.60449 7.28032 2.46383C7.13966 2.32318 6.9489 2.24416 6.74999 2.24416C6.55107 2.24416 6.36031 2.32318 6.21966 2.46383C6.079 2.60449 5.99999 2.79525 5.99999 2.99416V4.49116H5.24799C4.45234 4.49116 3.68927 4.80723 3.12667 5.36984C2.56406 5.93245 2.24799 6.69551 2.24799 7.49116V18.7432C2.24799 19.5388 2.56406 20.3019 3.12667 20.8645C3.68927 21.4271 4.45234 21.7432 5.24799 21.7432H18.748C19.5436 21.7432 20.3067 21.4271 20.8693 20.8645C21.4319 20.3019 21.748 19.5388 21.748 18.7432V7.49216C21.748 6.69651 21.4319 5.93345 20.8693 5.37084C20.3067 4.80823 19.5436 4.49216 18.748 4.49216H18V2.99316ZM3.74799 18.7432V11.2432C3.74799 10.8453 3.90602 10.4638 4.18733 10.1825C4.46863 9.9012 4.85016 9.74316 5.24799 9.74316H18.748C19.1458 9.74316 19.5273 9.9012 19.8086 10.1825C20.09 10.4638 20.248 10.8453 20.248 11.2432V18.7432C20.248 19.141 20.09 19.5225 19.8086 19.8038C19.5273 20.0851 19.1458 20.2432 18.748 20.2432H5.24799C4.85016 20.2432 4.46863 20.0851 4.18733 19.8038C3.90602 19.5225 3.74799 19.141 3.74799 18.7432Z" fill="#64748B"/>
</svg>
