<svg width="32" height="24" viewBox="0 0 32 24" fill="none" xmlns="http://www.w3.org/2000/svg">
<path d="M0 0H32V24H0V0Z" fill="#032EA1"/>
<path d="M0 6H32V18H0V6Z" fill="#E00025"/>
<path d="M12.62 11.3101H19.448V13.9381H12.62V11.3101Z" fill="white" stroke="#0F172A" stroke-width="0.06" stroke-linejoin="bevel"/>
<path d="M19.1 12.7561H19.31V13.7461H19.1V12.7561ZM12.62 12.2701H19.448V12.5701H12.62V12.2701ZM12.62 11.8501H19.448V12.1261H12.62V11.8501Z" fill="white" stroke="#0F172A" stroke-width="0.06" stroke-linejoin="bevel"/>
<path d="M12.62 11.4419H19.448V11.6999H12.62V11.4419Z" fill="white" stroke="#0F172A" stroke-width="0.054" stroke-linejoin="bevel"/>
<path d="M14.42 12.7559H14.636V13.7459H14.42V12.7559ZM17.36 12.7559H17.576V13.7459H17.36V12.7559ZM12.68 12.7559H12.89V13.7459H12.68V12.7559ZM13.1 12.7559H13.31V13.7459H13.1V12.7559ZM13.55 12.7559H13.76V13.7459H13.55V12.7559ZM14 12.7559H14.21V13.7459H14V12.7559ZM17.768 12.7559H17.984V13.7459H17.768V12.7559ZM18.218 12.7559H18.434V13.7459H18.218V12.7559ZM18.668 12.7559H18.884V13.7459H18.668V12.7559Z" fill="white" stroke="#0F172A" stroke-width="0.06" stroke-linejoin="bevel"/>
<path d="M9.95001 14.07C10.0755 14.0017 10.17 13.8878 10.214 13.752H21.8C21.8441 13.8878 21.9386 14.0017 22.064 14.07H9.95001Z" fill="white" stroke="#0F172A" stroke-width="0.06"/>
<path d="M15.86 7.30815C15.86 7.30815 15.854 7.06215 15.998 7.05615C16.136 7.05615 16.13 7.30815 16.13 7.30815H15.86ZM15.11 10.5782V10.2482C15.11 10.0802 14.942 10.0682 14.942 9.94815C14.942 9.94815 14.918 9.76816 14.966 9.68416C15.032 9.92416 15.146 9.88215 15.146 9.78015C15.146 9.69615 15.086 9.61215 14.948 9.40215C14.9 9.33615 14.93 9.12615 14.99 9.04815C15.014 9.22815 15.044 9.31815 15.122 9.31815C15.17 9.31815 15.206 9.28815 15.206 9.19815C15.206 9.07815 15.128 9.01815 15.086 8.91015C15.0653 8.85641 15.0606 8.79784 15.0723 8.74145C15.084 8.68506 15.1117 8.63323 15.152 8.59215C15.182 8.77215 15.176 8.84416 15.254 8.84416C15.416 8.79016 15.254 8.55615 15.218 8.49615C15.182 8.43015 15.278 8.29215 15.278 8.29215C15.326 8.45415 15.338 8.46615 15.398 8.44815C15.47 8.43015 15.458 8.32816 15.374 8.24416C15.32 8.18416 15.326 8.10615 15.386 8.04615C15.446 8.16015 15.518 8.15415 15.524 8.08215L15.476 7.81815H16.52L16.466 8.07615C16.454 8.14815 16.55 8.16615 16.61 8.04615C16.67 8.10615 16.676 8.19016 16.622 8.24416C16.538 8.32816 16.526 8.43015 16.598 8.44815C16.658 8.46615 16.67 8.44815 16.718 8.29215C16.718 8.29215 16.808 8.38215 16.778 8.49615C16.742 8.55615 16.58 8.79616 16.742 8.84416C16.82 8.84416 16.814 8.77215 16.844 8.59215C16.8834 8.63388 16.9099 8.68601 16.9206 8.74237C16.9312 8.79873 16.9255 8.85696 16.904 8.91015C16.868 9.01815 16.784 9.07815 16.784 9.19815C16.784 9.28815 16.826 9.31815 16.874 9.31815C16.952 9.31815 16.982 9.23415 17.006 9.04815C17.066 9.12615 17.096 9.33615 17.048 9.40815C16.91 9.61215 16.844 9.69615 16.844 9.78015C16.844 9.88215 16.964 9.92416 17.024 9.68416C17.078 9.76816 17.054 9.94815 17.054 9.94815C17.054 10.0682 16.892 10.0802 16.886 10.2482V10.5782H15.11ZM15.542 7.81815L15.518 7.63215H16.472L16.448 7.81815H15.542ZM15.602 7.62615L15.59 7.47615H16.4L16.382 7.62615H15.602ZM15.74 7.47015L15.722 7.31416H16.262L16.256 7.47015H15.74ZM17.72 14.0702C17.6 14.0282 17.42 13.8962 17.42 13.7702V12.3122L17.576 12.1082H14.42L14.57 12.3122V13.7702C14.57 13.8962 14.45 14.0282 14.33 14.0702H17.72Z" fill="white" stroke="#0F172A" stroke-width="0.06"/>
<path d="M14.972 12.7563H15.188V13.7463H14.972V12.7563ZM16.796 12.7563H17.012V13.7463H16.796V12.7563Z" fill="white" stroke="#0F172A" stroke-width="0.06" stroke-linejoin="bevel"/>
<path d="M14.36 10.4521V12.1081H17.6V10.4521C17.5626 10.4658 17.5289 10.4882 17.5018 10.5174C17.4747 10.5466 17.4549 10.5818 17.444 10.6201V11.3281H14.522V10.6201C14.522 10.6201 14.486 10.5001 14.354 10.4521H14.36Z" fill="white" stroke="#0F172A" stroke-width="0.06"/>
<path d="M17.156 14.0701C17.048 14.0281 16.82 13.8961 16.82 13.7701V12.1381C16.844 12.0481 16.964 11.9941 17.042 11.9341H14.9C15.002 11.9941 15.116 12.0361 15.158 12.1381V13.7701C15.158 13.8961 14.978 14.0281 14.87 14.0701H17.156Z" fill="white" stroke="#0F172A" stroke-width="0.06"/>
<path d="M17.444 11.9521V10.7761H17.15V10.6621H14.822V10.7821H14.522V11.9521H17.444ZM16.7 14.0701C16.592 14.0281 16.442 13.8961 16.442 13.7701V12.3781L16.526 12.2521H15.464L15.554 12.3721V13.7701C15.554 13.8961 15.398 14.0281 15.296 14.0701H16.7Z" fill="white" stroke="#0F172A" stroke-width="0.06"/>
<path d="M15.722 12.252H16.262V14.07H15.722V12.252Z" fill="white" stroke="#0F172A" stroke-width="0.06"/>
<path d="M16.544 11.8501C16.544 11.7301 16.892 11.7241 17.072 11.6221H14.912C15.092 11.7241 15.434 11.7301 15.434 11.8501L15.506 12.0841L16.406 12.1201L16.544 11.8501Z" fill="white" stroke="#0F172A" stroke-width="0.06" stroke-linejoin="bevel"/>
<path d="M16.964 10.5779C16.964 10.2839 16.976 10.1759 17.066 10.1759V11.0999C16.844 11.1839 16.688 11.4599 16.688 11.4599H15.296C15.296 11.4599 15.14 11.1839 14.918 11.0999V10.1699C15.026 10.1699 15.026 10.2899 15.026 10.5719L16.964 10.5779ZM17.066 10.4579C17.066 10.1219 17.36 10.0859 17.36 10.0859V10.3859C17.246 10.3799 17.192 10.4819 17.192 10.6259C17.192 10.7759 17.282 10.7759 17.282 10.7759V11.6279H17.066V10.4579Z" fill="white" stroke="#0F172A" stroke-width="0.06"/>
<path d="M14.918 10.4579C14.918 10.1219 14.624 10.0859 14.624 10.0859V10.3859C14.738 10.3799 14.792 10.4819 14.792 10.6259C14.792 10.7759 14.702 10.7759 14.702 10.7759V11.6279H14.918V10.4579Z" fill="white" stroke="#0F172A" stroke-width="0.06"/>
<path d="M15.488 8.13623H16.52M15.368 8.46023H16.628M15.248 8.85023H16.742M15.122 9.32423H16.892M15.08 9.86423H16.904" stroke="#0F172A" stroke-width="0.048"/>
<path d="M14.528 11.6401H17.444M15.452 11.6401H16.532V12.0361H15.452V11.6401Z" stroke="#0F172A" stroke-width="0.06"/>
<path d="M15.32 10.7523C15.5 10.9683 15.476 11.3343 15.476 11.5503H16.52C16.52 11.3343 16.496 10.9683 16.676 10.7523H15.32ZM15.902 8.29234L15.758 8.21434V8.00434C15.818 8.02234 15.878 8.02834 15.89 8.12434C15.908 7.98634 15.95 7.99834 16.004 7.94434C16.064 7.99834 16.094 7.98634 16.118 8.12434C16.118 8.02834 16.19 8.02234 16.244 8.00434V8.21434L16.106 8.28633L15.902 8.29234Z" fill="white" stroke="#0F172A" stroke-width="0.06"/>
<path d="M15.89 8.63437L15.65 8.46637V8.28037C15.74 8.29837 15.83 8.31037 15.842 8.41237C15.866 8.26237 15.92 8.19037 16.004 8.13037C16.082 8.19037 16.136 8.26237 16.166 8.41237C16.172 8.31037 16.268 8.29837 16.346 8.28037V8.47237L16.112 8.63437H15.89Z" fill="white" stroke="#0F172A" stroke-width="0.06"/>
<path d="M15.872 9.16831L15.602 8.92831V8.64631C15.698 8.67031 15.806 8.68232 15.818 8.83232C15.848 8.62232 15.908 8.50832 15.998 8.42432C16.094 8.50832 16.154 8.62232 16.19 8.83232C16.202 8.68232 16.31 8.67031 16.406 8.64631V8.92831L16.13 9.16831H15.872ZM16.376 9.48631L16.136 9.82831H15.854L15.608 9.48631H16.376ZM15.464 10.0563C15.584 10.1223 15.632 10.2603 15.644 10.5123H16.34C16.352 10.2603 16.4 10.1223 16.52 10.0563H15.464Z" fill="white" stroke="#0F172A" stroke-width="0.06"/>
<path d="M16.532 9.48003V9.14403C16.4804 9.15504 16.4324 9.17898 16.3925 9.21361C16.3526 9.24824 16.3222 9.29243 16.304 9.34203C16.304 9.22203 16.154 8.96403 15.992 8.83203C15.83 8.97603 15.674 9.21603 15.68 9.33603C15.65 9.24603 15.572 9.17403 15.452 9.14403V9.48603L16.532 9.48003Z" fill="white" stroke="#0F172A" stroke-width="0.06" stroke-linejoin="bevel"/>
<path d="M16.58 10.0562V9.7202C16.454 9.7562 16.37 9.8222 16.334 9.9182C16.334 9.7982 16.172 9.5402 15.992 9.4082C15.812 9.5582 15.644 9.7922 15.65 9.9182C15.62 9.8282 15.53 9.7562 15.404 9.7202V10.0622L16.58 10.0562Z" fill="white" stroke="#0F172A" stroke-width="0.06" stroke-linejoin="bevel"/>
<path d="M16.724 10.7582V10.3622C16.5991 10.4013 16.4912 10.4817 16.418 10.5902C16.418 10.3802 16.178 10.0502 15.992 9.94824C15.8 10.0562 15.566 10.3922 15.566 10.5902C15.491 10.4809 15.381 10.4005 15.254 10.3622V10.7582H16.724Z" fill="white" stroke="#0F172A" stroke-width="0.06" stroke-linejoin="bevel"/>
<path d="M16.64 11.6403V11.2323C16.496 11.2863 16.46 11.4183 16.412 11.5143C16.43 11.1003 16.184 10.6623 15.992 10.5483C15.8 10.6623 15.548 11.1123 15.572 11.5083C15.524 11.4243 15.482 11.2863 15.344 11.2323V11.6343L16.64 11.6403Z" fill="white" stroke="#0F172A" stroke-width="0.06" stroke-linejoin="bevel"/>
<path d="M16.544 12.2522V11.8442C16.394 11.8802 16.388 11.9342 16.34 12.0242C16.358 11.7782 16.184 11.4962 15.992 11.3882C15.8 11.4962 15.632 11.7782 15.644 12.0242C15.596 11.9342 15.59 11.8802 15.44 11.8442V12.2522H16.544Z" fill="white" stroke="#0F172A" stroke-width="0.06"/>
<path d="M10.22 13.7525V12.5285C10.178 12.3725 10.04 12.2285 9.94403 12.2045V11.1245L10.166 11.2445L10.424 12.3785V13.7585L10.22 13.7525Z" fill="white" stroke="#0F172A" stroke-width="0.06"/>
<path d="M10.22 13.7582V12.5282C10.178 12.3722 10.04 12.2282 9.94403 12.2042V11.0522C10.094 11.0522 10.166 11.2442 10.166 11.2442L10.424 12.3782V13.7522L10.22 13.7582Z" fill="white" stroke="#0F172A" stroke-width="0.06"/>
<path d="M10.058 14.0703C10.16 14.0283 10.31 13.8963 10.31 13.7703V12.2343L10.238 12.1143H12.86L12.758 12.2343V13.7703C12.7624 13.8338 12.7837 13.8951 12.8195 13.9478C12.8553 14.0005 12.9045 14.0428 12.962 14.0703H10.058Z" fill="white" stroke="#0F172A" stroke-width="0.06"/>
<path d="M12.428 14.0704C12.326 14.0284 12.176 13.8964 12.176 13.7704V12.3124L12.392 12.1084H10.616L10.832 12.3124V13.7704C10.832 13.8964 10.682 14.0284 10.58 14.0704H12.428Z" fill="white" stroke="#0F172A" stroke-width="0.06"/>
<path d="M12.182 14.0704C12.08 14.0284 11.924 13.8964 11.924 13.7704V12.4504L12.0681 12.2524H10.94L11.084 12.4504V13.7704C11.084 13.8964 10.934 14.0284 10.826 14.0704H12.182Z" fill="white" stroke="#0F172A" stroke-width="0.06"/>
<path d="M11.24 12.2524H11.774V14.0764H11.234L11.24 12.2524Z" fill="white" stroke="#0F172A" stroke-width="0.06"/>
<path d="M10.502 12.7565H10.718V13.7465H10.502V12.7565ZM12.35 12.7565H12.56V13.7465H12.344L12.35 12.7565ZM10.316 11.0885H10.58V12.1085H10.316V11.0885ZM10.316 10.8965H10.574V11.0885H10.316V10.8965ZM12.452 11.3105H12.818V12.0905H12.452V11.3105Z" fill="white"/>
<path d="M10.316 11.0885H10.58V12.1085H10.316V11.0885ZM10.316 11.0885H10.574V10.8965H10.316V11.0885ZM10.502 12.7565H10.718V13.7465H10.502V12.7565ZM12.35 12.7565H12.56V13.7465H12.344L12.35 12.7565ZM12.452 11.3105H12.818V12.0905H12.452V11.3105Z" stroke="#0F172A" stroke-width="0.06" stroke-linejoin="bevel"/>
<path d="M10.574 12.0964V10.3564C10.646 10.3564 10.658 10.6144 10.826 10.6144C10.916 10.6144 10.91 10.5064 10.856 10.4224C10.814 10.3444 10.76 10.2424 10.832 10.0444C10.886 10.1944 11.018 10.2424 10.994 10.1524C10.952 9.99039 10.826 9.96039 10.922 9.71439C10.952 9.91839 11.084 9.91239 11.054 9.79239C11.018 9.65439 10.94 9.59439 11.036 9.40239C11.09 9.62439 11.156 9.61239 11.156 9.47439C11.156 9.27039 11.156 9.05439 11.408 8.97639C11.408 8.97639 11.426 8.79639 11.522 8.79639C11.612 8.79639 11.63 8.97639 11.63 8.97639C11.888 9.05439 11.882 9.27639 11.882 9.47439C11.882 9.61239 11.948 9.62439 12.002 9.40239C12.098 9.59439 12.02 9.65439 11.984 9.79239C11.954 9.91239 12.086 9.91839 12.116 9.71439C12.212 9.96039 12.086 9.99039 12.044 10.1524C12.02 10.2424 12.152 10.1944 12.206 10.0444C12.278 10.2424 12.224 10.3444 12.182 10.4224C12.134 10.5064 12.122 10.6144 12.212 10.6144C12.38 10.6144 12.392 10.3624 12.464 10.3624V12.0964H10.574ZM10.16 10.7824V12.1084H10.31V10.7824C10.256 10.7524 10.208 10.7524 10.16 10.7824Z" fill="white" stroke="#0F172A" stroke-width="0.06"/>
<path d="M10.1721 11.6403C10.3581 11.7363 10.5441 11.8503 10.5921 12.1083H10.1721V11.6403ZM12.7641 11.2443V12.1083H12.8841V11.2443C12.8481 11.2263 12.7941 11.2203 12.7641 11.2443Z" fill="white" stroke="#0F172A" stroke-width="0.06"/>
<path d="M12.884 11.6406C12.698 11.7306 12.512 11.8386 12.464 12.1026H12.884V11.6406ZM11.648 9.61857L11.756 9.52857V9.40857C11.72 9.40857 11.696 9.42657 11.666 9.46857C11.6544 9.43004 11.6351 9.39425 11.6093 9.36333C11.5835 9.3324 11.5518 9.30698 11.516 9.28857C11.4797 9.30567 11.4472 9.32987 11.4204 9.35976C11.3936 9.38965 11.3731 9.42461 11.36 9.46258C11.33 9.42058 11.312 9.41458 11.27 9.40258V9.52258L11.378 9.61857H11.648Z" fill="white" stroke="#0F172A" stroke-width="0.06"/>
<path d="M11.708 9.91232L11.756 9.79832V9.64832C11.72 9.64832 11.696 9.66632 11.666 9.70832C11.6544 9.66979 11.6351 9.634 11.6093 9.60307C11.5835 9.57215 11.5518 9.54673 11.516 9.52832C11.4797 9.54541 11.4472 9.56962 11.4204 9.59951C11.3936 9.6294 11.3731 9.66436 11.36 9.70232C11.33 9.66032 11.312 9.65432 11.27 9.64832V9.79832L11.318 9.91232H11.708Z" fill="white" stroke="#0F172A" stroke-width="0.06"/>
<path d="M11.72 10.3086L11.876 10.1106V9.91862C11.816 9.91862 11.786 9.94862 11.744 10.0146C11.702 9.87662 11.624 9.85262 11.516 9.78662C11.402 9.84662 11.324 9.87662 11.288 10.0086C11.24 9.94262 11.21 9.92462 11.15 9.91862V10.1106L11.312 10.3086H11.72Z" fill="white" stroke="#0F172A" stroke-width="0.06"/>
<path d="M11.762 10.6983C11.762 10.6983 11.954 10.5363 11.96 10.4463V10.2363C11.888 10.2423 11.822 10.2603 11.768 10.3503C11.72 10.1763 11.648 10.1283 11.516 10.0503C11.378 10.1283 11.306 10.1763 11.264 10.3503C11.204 10.2603 11.144 10.2423 11.066 10.2303V10.4463C11.1164 10.5415 11.1835 10.6268 11.264 10.6983H11.762Z" fill="white" stroke="#0F172A" stroke-width="0.06"/>
<path d="M11.8401 11.4182C11.8401 11.4182 12.1041 11.1362 12.1101 11.0222V10.6982C12.0141 10.7102 11.9181 10.7762 11.8461 10.9142C11.7861 10.6442 11.6901 10.4582 11.5161 10.3262C11.3361 10.4582 11.2401 10.6442 11.1801 10.9142C11.1081 10.7762 11.0181 10.7102 10.9221 10.6982V11.0222C10.9401 11.1362 11.1861 11.4182 11.1861 11.4182H11.8401Z" fill="white" stroke="#0F172A" stroke-width="0.06"/>
<path d="M11.8401 11.8444C11.8401 11.8444 12.0621 11.6224 12.1101 11.5264V11.2024C12.0141 11.2144 11.9181 11.2804 11.8461 11.4124C11.83 11.3032 11.7926 11.1982 11.736 11.1035C11.6794 11.0088 11.6046 10.9262 11.5161 10.8604C11.3361 10.9924 11.2401 11.1424 11.1801 11.4124C11.1081 11.2804 11.0181 11.2144 10.9221 11.2024V11.5264C10.9821 11.6224 11.1861 11.8444 11.1861 11.8444H11.8401Z" fill="white" stroke="#0F172A" stroke-width="0.06"/>
<path d="M11.93 12.0965C11.87 11.8145 11.81 11.6045 11.504 11.3945C11.192 11.6045 11.138 11.8145 11.072 12.0965H11.93Z" fill="white" stroke="#0F172A" stroke-width="0.06"/>
<path d="M12.0921 12.2524V11.8444C11.9481 11.9044 11.8221 11.9824 11.7741 12.0724C11.7261 11.8444 11.6241 11.7484 11.4981 11.6104C11.3721 11.7484 11.2881 11.8504 11.2341 12.0724C11.1861 11.9824 11.0601 11.8984 10.9221 11.8444V12.2524H12.0921Z" fill="white" stroke="#0F172A" stroke-width="0.06"/>
<path d="M21.782 13.7525V12.5285C21.824 12.3725 21.962 12.2285 22.058 12.2045V11.1245L21.836 11.2445L21.578 12.3785V13.7585L21.782 13.7525Z" fill="white" stroke="#0F172A" stroke-width="0.06"/>
<path d="M21.782 13.7582V12.5282C21.824 12.3722 21.962 12.2282 22.058 12.2042V11.0522C21.908 11.0522 21.836 11.2442 21.836 11.2442L21.578 12.3782V13.7522L21.782 13.7582Z" fill="white" stroke="#0F172A" stroke-width="0.06"/>
<path d="M21.944 14.0703C21.842 14.0283 21.692 13.8963 21.692 13.7703V12.2343L21.764 12.1143H19.142L19.244 12.2343V13.7703C19.2396 13.8338 19.2184 13.8951 19.1826 13.9478C19.1467 14.0005 19.0975 14.0428 19.04 14.0703H21.944Z" fill="white" stroke="#0F172A" stroke-width="0.06"/>
<path d="M19.5741 14.0704C19.6761 14.0284 19.8261 13.8964 19.8261 13.7704V12.3124L19.6101 12.1084H21.3861L21.1701 12.3124V13.7704C21.1701 13.8964 21.3201 14.0284 21.4221 14.0704H19.5741Z" fill="white" stroke="#0F172A" stroke-width="0.06"/>
<path d="M19.82 14.0704C19.922 14.0284 20.078 13.8964 20.078 13.7704V12.4504L19.934 12.2524H21.062L20.918 12.4504V13.7704C20.918 13.8964 21.068 14.0284 21.176 14.0704H19.82Z" fill="white" stroke="#0F172A" stroke-width="0.06"/>
<path d="M20.7621 12.2524H20.2281V14.0764H20.7681L20.7621 12.2524Z" fill="white" stroke="#0F172A" stroke-width="0.06"/>
<path d="M21.5 12.7565H21.284V13.7465H21.5V12.7565ZM19.652 12.7565H19.442V13.7465H19.658L19.652 12.7565ZM21.686 11.0885H21.422V12.1085H21.686V11.0885ZM21.686 10.8965H21.428V11.0885H21.686V10.8965ZM19.55 11.3105H19.184V12.0905H19.55V11.3105Z" fill="white"/>
<path d="M21.686 11.0885H21.422V12.1085H21.686V11.0885ZM21.686 11.0885H21.428V10.8965H21.686V11.0885ZM21.5 12.7565H21.284V13.7465H21.5V12.7565ZM19.652 12.7565H19.442V13.7465H19.658L19.652 12.7565ZM19.55 11.3105H19.184V12.0905H19.55V11.3105Z" stroke="#0F172A" stroke-width="0.06" stroke-linejoin="bevel"/>
<path d="M21.428 12.0964V10.3564C21.356 10.3564 21.344 10.6144 21.176 10.6144C21.086 10.6144 21.092 10.5064 21.146 10.4224C21.188 10.3444 21.242 10.2424 21.17 10.0444C21.116 10.1944 20.984 10.2424 21.008 10.1524C21.05 9.99039 21.176 9.96039 21.08 9.71439C21.05 9.91839 20.918 9.91239 20.948 9.79239C20.984 9.65439 21.062 9.59439 20.966 9.40239C20.912 9.62439 20.846 9.61239 20.846 9.47439C20.846 9.27039 20.846 9.05439 20.594 8.97639C20.594 8.97639 20.576 8.79639 20.48 8.79639C20.39 8.79639 20.372 8.97639 20.372 8.97639C20.114 9.05439 20.12 9.27639 20.12 9.47439C20.12 9.61239 20.054 9.62439 20 9.40239C19.904 9.59439 19.982 9.65439 20.018 9.79239C20.048 9.91239 19.916 9.91839 19.886 9.71439C19.79 9.96039 19.916 9.99039 19.958 10.1524C19.982 10.2424 19.85 10.1944 19.796 10.0444C19.724 10.2424 19.778 10.3444 19.82 10.4224C19.868 10.5064 19.88 10.6144 19.79 10.6144C19.622 10.6144 19.61 10.3624 19.538 10.3624V12.0964H21.428ZM21.842 10.7824V12.1084H21.692V10.7824C21.746 10.7524 21.794 10.7524 21.842 10.7824Z" fill="white" stroke="#0F172A" stroke-width="0.06"/>
<path d="M21.83 11.6403C21.644 11.7363 21.458 11.8503 21.41 12.1083H21.83V11.6403ZM19.238 11.2443V12.1083H19.118V11.2443C19.154 11.2263 19.208 11.2203 19.238 11.2443Z" fill="white" stroke="#0F172A" stroke-width="0.06"/>
<path d="M19.1181 11.6406C19.3041 11.7306 19.4901 11.8386 19.5381 12.1026H19.1181V11.6406ZM20.3541 9.61857L20.2461 9.52857V9.40857C20.2821 9.40857 20.3061 9.42657 20.3361 9.46857C20.3477 9.43004 20.367 9.39425 20.3928 9.36333C20.4185 9.3324 20.4503 9.30698 20.4861 9.28857C20.5224 9.30567 20.5549 9.32987 20.5817 9.35976C20.6085 9.38965 20.629 9.42461 20.6421 9.46258C20.6721 9.42058 20.6901 9.41458 20.7321 9.40258V9.52258L20.6241 9.61857H20.3541Z" fill="white" stroke="#0F172A" stroke-width="0.06"/>
<path d="M20.2941 9.91232L20.2461 9.79832V9.64832C20.2821 9.64832 20.3061 9.66632 20.3361 9.70832C20.3477 9.66979 20.367 9.634 20.3928 9.60307C20.4185 9.57215 20.4503 9.54673 20.4861 9.52832C20.5224 9.54541 20.5549 9.56962 20.5817 9.59951C20.6085 9.6294 20.629 9.66436 20.6421 9.70232C20.6721 9.66032 20.6901 9.65432 20.7321 9.64832V9.79832L20.6841 9.91232H20.2941Z" fill="white" stroke="#0F172A" stroke-width="0.06"/>
<path d="M20.2821 10.3086L20.1261 10.1106V9.91862C20.1861 9.91862 20.2161 9.94862 20.2581 10.0146C20.3001 9.87662 20.3781 9.85262 20.4861 9.78662C20.6001 9.84662 20.6781 9.87662 20.7141 10.0086C20.7621 9.94262 20.7921 9.92462 20.8521 9.91862V10.1106L20.6901 10.3086H20.2821Z" fill="white" stroke="#0F172A" stroke-width="0.06"/>
<path d="M20.24 10.6983C20.24 10.6983 20.048 10.5363 20.042 10.4463V10.2363C20.114 10.2423 20.18 10.2603 20.234 10.3503C20.282 10.1763 20.354 10.1283 20.486 10.0503C20.624 10.1283 20.696 10.1763 20.738 10.3503C20.798 10.2603 20.858 10.2423 20.936 10.2303V10.4463C20.8856 10.5415 20.8186 10.6268 20.738 10.6983H20.24Z" fill="white" stroke="#0F172A" stroke-width="0.06"/>
<path d="M20.162 11.4182C20.162 11.4182 19.898 11.1362 19.892 11.0222V10.6982C19.988 10.7102 20.084 10.7762 20.156 10.9142C20.216 10.6442 20.312 10.4582 20.486 10.3262C20.666 10.4582 20.762 10.6442 20.822 10.9142C20.894 10.7762 20.984 10.7102 21.08 10.6982V11.0222C21.062 11.1362 20.816 11.4182 20.816 11.4182H20.162Z" fill="white" stroke="#0F172A" stroke-width="0.06"/>
<path d="M20.162 11.8444C20.162 11.8444 19.94 11.6224 19.892 11.5264V11.2024C19.988 11.2144 20.084 11.2804 20.156 11.4124C20.1721 11.3032 20.2095 11.1982 20.2661 11.1035C20.3227 11.0088 20.3974 10.9262 20.486 10.8604C20.666 10.9924 20.762 11.1424 20.822 11.4124C20.894 11.2804 20.984 11.2144 21.08 11.2024V11.5264C21.02 11.6224 20.816 11.8444 20.816 11.8444H20.162Z" fill="white" stroke="#0F172A" stroke-width="0.06"/>
<path d="M20.0721 12.0965C20.1321 11.8145 20.1921 11.6045 20.4981 11.3945C20.8101 11.6045 20.8641 11.8145 20.9301 12.0965H20.0721Z" fill="white" stroke="#0F172A" stroke-width="0.06"/>
<path d="M19.91 12.2524V11.8444C20.054 11.9044 20.18 11.9824 20.228 12.0724C20.276 11.8444 20.378 11.7484 20.504 11.6104C20.63 11.7484 20.714 11.8504 20.768 12.0724C20.816 11.9824 20.942 11.8984 21.08 11.8444V12.2524H19.91Z" fill="white" stroke="#0F172A" stroke-width="0.06"/>
<path d="M8.64201 15.5582H23.36V16.3082H8.64201V15.5582ZM8.25201 16.3082H23.75V17.0582H8.25201V16.3082ZM9.41601 14.4302H22.58V14.9162H9.41601V14.4302Z" fill="white" stroke="#0F172A" stroke-width="0.06"/>
<path d="M9.03204 14.9161H22.976V15.5521H9.03204V14.9161ZM9.64404 14.0581H22.364V14.4301H9.64404V14.0581Z" fill="white" stroke="#0F172A" stroke-width="0.06"/>
<path d="M11.024 14.0581H11.984V17.0581H11.024V14.0581Z" fill="white" stroke="#0F172A" stroke-width="0.06"/>
<path d="M11.24 14.0581H11.774V17.0581H11.234L11.24 14.0581ZM15.5 14.0581H16.46V17.0581H15.5V14.0581Z" fill="white" stroke="#0F172A" stroke-width="0.06"/>
<path d="M15.722 14.0581H16.262V17.0581H15.722V14.0581ZM20.012 14.0581H20.972V17.0581H20.012V14.0581Z" fill="white" stroke="#0F172A" stroke-width="0.06"/>
<path d="M20.222 14.0581H20.762V17.0581H20.222V14.0581Z" fill="white" stroke="#0F172A" stroke-width="0.06"/>
<path d="M10.22 13.752H21.8M11.228 16.68H11.78M11.228 16.302H11.78M11.228 15.93H11.78M11.228 15.552H11.78M11.228 15.18H11.78M11.228 14.802H11.78M11.228 14.43H11.78M15.728 16.68H16.244M15.728 16.302H16.244M15.728 15.93H16.244M15.728 15.552H16.244M15.728 15.18H16.244M15.728 14.802H16.244M15.728 14.43H16.244M20.216 16.68H20.768M20.216 16.302H20.768M20.216 15.93H20.768M20.216 15.552H20.768M20.216 15.18H20.768M20.216 14.802H20.768M20.216 14.43H20.768" stroke="#0F172A" stroke-width="0.06"/>
</svg>
