<svg width="24" height="24" viewBox="0 0 24 24" fill="none" xmlns="http://www.w3.org/2000/svg">
<g clip-path="url(#clip0_1_41341)">
<path d="M11.9998 9.81836V14.4656H18.458C18.1744 15.9602 17.3234 17.2257 16.047 18.0766L19.9416 21.0984C22.2107 19.0039 23.5198 15.9276 23.5198 12.273C23.5198 11.4221 23.4434 10.6039 23.3015 9.81849L11.9998 9.81836Z" fill="#4285F4"/>
<path d="M5.27468 14.2842L4.39631 14.9566L1.28717 17.3783C3.26171 21.2947 7.30868 24.0002 11.9996 24.0002C15.2395 24.0002 17.9558 22.9311 19.9413 21.0984L16.0468 18.0765C14.9777 18.7965 13.614 19.2329 11.9996 19.2329C8.87957 19.2329 6.22874 17.1275 5.27958 14.2911L5.27468 14.2842Z" fill="#34A853"/>
<path d="M1.28718 6.62158C0.469042 8.23606 0 10.0579 0 11.9997C0 13.9415 0.469042 15.7633 1.28718 17.3778C1.28718 17.3886 5.27997 14.2796 5.27997 14.2796C5.03998 13.5596 4.89812 12.796 4.89812 11.9996C4.89812 11.2031 5.03998 10.4395 5.27997 9.71951L1.28718 6.62158Z" fill="#FBBC05"/>
<path d="M11.9998 4.77818C13.7671 4.77818 15.338 5.38907 16.5925 6.56727L20.0289 3.13095C17.9452 1.18917 15.2398 0 11.9998 0C7.30893 0 3.26171 2.69454 1.28717 6.62183L5.27984 9.72001C6.22888 6.88362 8.87982 4.77818 11.9998 4.77818Z" fill="#EA4335"/>
</g>
<defs>
<clipPath id="clip0_1_41341">
<rect width="24" height="24" fill="white"/>
</clipPath>
</defs>
</svg>
