<svg width="24" height="24" viewBox="0 0 24 24" fill="none" xmlns="http://www.w3.org/2000/svg">
<path d="M11.47 3.84111C11.6106 3.70066 11.8013 3.62177 12 3.62177C12.1988 3.62177 12.3894 3.70066 12.53 3.84111L21.22 12.5311C21.2892 12.6027 21.372 12.6598 21.4635 12.6991C21.5551 12.7383 21.6535 12.759 21.7531 12.7598C21.8526 12.7606 21.9514 12.7416 22.0435 12.7038C22.1357 12.6661 22.2194 12.6104 22.2898 12.5399C22.3602 12.4694 22.4158 12.3857 22.4535 12.2935C22.4912 12.2013 22.5101 12.1025 22.5092 12.003C22.5083 11.9034 22.4875 11.805 22.4482 11.7135C22.4088 11.622 22.3517 11.5393 22.28 11.4701L13.591 2.78011C13.3821 2.57118 13.134 2.40544 12.861 2.29237C12.5881 2.17929 12.2955 2.12109 12 2.12109C11.7045 2.12109 11.4119 2.17929 11.139 2.29237C10.866 2.40544 10.6179 2.57118 10.409 2.78011L1.719 11.4701C1.6474 11.5393 1.59031 11.6221 1.55104 11.7136C1.51178 11.8052 1.49114 11.9036 1.49032 12.0032C1.4895 12.1028 1.50853 12.2015 1.54628 12.2937C1.58403 12.3858 1.63976 12.4695 1.71022 12.5399C1.78067 12.6103 1.86443 12.6659 1.95662 12.7036C2.04881 12.7413 2.14758 12.7602 2.24716 12.7593C2.34675 12.7584 2.44515 12.7377 2.53664 12.6983C2.62812 12.659 2.71085 12.6018 2.78 12.5301L11.47 3.84111Z" fill="#64748B"/>
<path d="M12 5.43213L20.159 13.5911C20.189 13.6211 20.219 13.6491 20.25 13.6771V19.8751C20.25 20.9101 19.41 21.7501 18.375 21.7501H15C14.8011 21.7501 14.6103 21.6711 14.4697 21.5305C14.329 21.3898 14.25 21.199 14.25 21.0001V16.5001C14.25 16.3012 14.171 16.1105 14.0303 15.9698C13.8897 15.8291 13.6989 15.7501 13.5 15.7501H10.5C10.3011 15.7501 10.1103 15.8291 9.96967 15.9698C9.82902 16.1105 9.75 16.3012 9.75 16.5001V21.0001C9.75 21.199 9.67098 21.3898 9.53033 21.5305C9.38968 21.6711 9.19891 21.7501 9 21.7501H5.625C5.12772 21.7501 4.65081 21.5526 4.29917 21.201C3.94754 20.8493 3.75 20.3724 3.75 19.8751V13.6771C3.78111 13.6493 3.81146 13.6206 3.841 13.5911L12 5.43213Z" fill="#64748B"/>
</svg>
