<svg width="24" height="24" viewBox="0 0 24 24" fill="none" xmlns="http://www.w3.org/2000/svg">
<path d="M7.5 2.00021C5.71 3.15021 4.5 5.18021 4.5 7.50021C4.5 9.82021 5.71 11.8502 7.53 13.0002C4.46 13.0002 2 10.5402 2 7.50021C2 6.04152 2.57946 4.64258 3.61091 3.61113C4.64236 2.57968 6.04131 2.00021 7.5 2.00021ZM19.07 3.50021L20.5 4.93021L4.93 20.5002L3.5 19.0702L19.07 3.50021ZM12.89 5.93021L11.41 5.00021L9.97 6.00021L10.39 4.30022L9 3.24021L10.75 3.12021L11.33 1.47021L12 3.10021L13.73 3.13021L12.38 4.26022L12.89 5.93021ZM9.59 9.54021L8.43 8.81021L7.31 9.59021L7.65 8.27022L6.56 7.44022L7.92 7.35021L8.37 6.06021L8.88 7.33021L10.24 7.36022L9.19 8.23021L9.59 9.54021ZM19 13.5002C19 14.9589 18.4205 16.3579 17.3891 17.3893C16.3576 18.4208 14.9587 19.0002 13.5 19.0002C12.28 19.0002 11.15 18.6002 10.24 17.9302L17.93 10.2402C18.6 11.1502 19 12.2802 19 13.5002ZM14.6 20.0802L17.37 18.9302L17.13 22.2802L14.6 20.0802ZM18.93 17.3802L20.08 14.6102L22.28 17.1502L18.93 17.3802ZM20.08 12.4202L18.94 9.64021L22.28 9.88021L20.08 12.4202ZM9.63 18.9302L12.4 20.0802L9.87 22.2702L9.63 18.9302Z" fill="#64748B"/>
</svg>
