<svg width="24" height="24" viewBox="0 0 24 24" fill="none" xmlns="http://www.w3.org/2000/svg">
<path d="M5.25 6.375C5.25 5.28098 5.6846 4.23177 6.45818 3.45818C7.23177 2.6846 8.28098 2.25 9.375 2.25C10.469 2.25 11.5182 2.6846 12.2918 3.45818C13.0654 4.23177 13.5 5.28098 13.5 6.375C13.5 7.46902 13.0654 8.51823 12.2918 9.29182C11.5182 10.0654 10.469 10.5 9.375 10.5C8.28098 10.5 7.23177 10.0654 6.45818 9.29182C5.6846 8.51823 5.25 7.46902 5.25 6.375ZM2.25 19.125C2.25 17.2353 3.00067 15.4231 4.33686 14.0869C5.67306 12.7507 7.48533 12 9.375 12C11.2647 12 13.0769 12.7507 14.4131 14.0869C15.7493 15.4231 16.5 17.2353 16.5 19.125V19.128L16.499 19.247C16.4969 19.3742 16.4624 19.4987 16.3989 19.6089C16.3354 19.7191 16.245 19.8114 16.136 19.877C14.0952 21.106 11.7573 21.7536 9.375 21.75C6.903 21.75 4.589 21.066 2.615 19.877C2.50585 19.8115 2.41517 19.7193 2.35149 19.6091C2.28781 19.4989 2.25323 19.3743 2.251 19.247L2.25 19.125ZM18.75 7.5C18.75 7.30109 18.671 7.11032 18.5303 6.96967C18.3897 6.82902 18.1989 6.75 18 6.75C17.8011 6.75 17.6103 6.82902 17.4697 6.96967C17.329 7.11032 17.25 7.30109 17.25 7.5V9.75H15C14.8011 9.75 14.6103 9.82902 14.4697 9.96967C14.329 10.1103 14.25 10.3011 14.25 10.5C14.25 10.6989 14.329 10.8897 14.4697 11.0303C14.6103 11.171 14.8011 11.25 15 11.25H17.25V13.5C17.25 13.6989 17.329 13.8897 17.4697 14.0303C17.6103 14.171 17.8011 14.25 18 14.25C18.1989 14.25 18.3897 14.171 18.5303 14.0303C18.671 13.8897 18.75 13.6989 18.75 13.5V11.25H21C21.1989 11.25 21.3897 11.171 21.5303 11.0303C21.671 10.8897 21.75 10.6989 21.75 10.5C21.75 10.3011 21.671 10.1103 21.5303 9.96967C21.3897 9.82902 21.1989 9.75 21 9.75H18.75V7.5Z" fill="#64748B"/>
</svg>
