<svg width="33" height="11" viewBox="0 0 33 11" fill="none" xmlns="http://www.w3.org/2000/svg">
<path d="M21.4941 0C19.151 0 17.057 1.24944 17.057 3.55789C17.057 6.20524 20.7707 6.38809 20.7707 7.71804C20.7707 8.27803 20.1469 8.77931 19.0815 8.77931C17.5695 8.77931 16.4394 8.07887 16.4394 8.07887L15.9558 10.4083C15.9558 10.4083 17.2577 11 18.9861 11C21.5479 11 23.5637 9.68921 23.5637 7.34129C23.5637 4.54389 19.8346 4.36647 19.8346 3.13206C19.8346 2.69339 20.3466 2.21274 21.409 2.21274C22.6077 2.21274 23.5856 2.72214 23.5856 2.72214L24.0588 0.472263C24.0588 0.472263 22.9947 0 21.4941 0ZM0.0567365 0.169803L0 0.509407C0 0.509407 0.985758 0.695009 1.87359 1.06524C3.01676 1.48979 3.09819 1.73694 3.29072 2.50458L5.38868 10.8249H8.201L12.5336 0.169803H9.72773L6.94377 7.41426L5.80775 1.27352C5.70357 0.570714 5.17585 0.169803 4.52989 0.169803H0.0567365ZM13.6619 0.169803L11.4608 10.8249H14.1364L16.3298 0.169803H13.6619ZM28.5849 0.169803C27.9397 0.169803 27.5978 0.52517 27.347 1.14617L23.427 10.8249H26.2329L26.7758 9.21177H30.1941L30.5242 10.8249H33L30.8401 0.169803H28.5849ZM28.9498 3.04848L29.7815 7.04679H27.5533L28.9498 3.04848Z" fill="#1434CB"/>
</svg>
